<?xml version="1.0" encoding="UTF-8" standalone="no"?>
<svg width="26px" height="21px" viewBox="0 0 26 21" version="1.1" xmlns="http://www.w3.org/2000/svg" xmlns:xlink="http://www.w3.org/1999/xlink" xmlns:sketch="http://www.bohemiancoding.com/sketch/ns">
    <!-- Generator: Sketch 3.3.3 (12072) - http://www.bohemiancoding.com/sketch -->
    <title>Add Contact</title>
    <desc>Created with Sketch.</desc>
    <defs></defs>
    <g id="Page-1" stroke="none" stroke-width="1" fill="none" fill-rule="evenodd" sketch:type="MSPage">
        <g id="Spideroak-Social-Copy-9" sketch:type="MSArtboardGroup" transform="translate(-141.000000, -29.000000)" fill="#FFFFFF">
            <g id="Add-Contact" sketch:type="MSLayerGroup" transform="translate(141.000000, 29.000000)">
                <path d="M21.8690593,10.7171601 L21.8690593,13.539823 C21.8690593,13.9320429 21.5628784,14.25 21.1851852,14.25 C20.8074919,14.25 20.501311,13.9320429 20.501311,13.539823 L20.501311,10.7148267 L17.7753432,10.710176 C17.3976505,10.7095317 17.091973,10.3910527 17.0925935,9.99883328 C17.093214,9.60661389 17.3998975,9.28917961 17.7775902,9.28982397 C17.7775902,9.28982397 19.05337,9.2920005 20.501311,9.29447075 L20.501311,6.46017699 C20.501311,6.06795707 20.8074919,5.75 21.1851852,5.75 C21.5628784,5.75 21.8690593,6.06795707 21.8690593,6.46017699 L21.8690593,9.29680419 C23.2854552,9.29922063 24.5382205,9.3013579 24.5950271,9.30145481 C24.9727199,9.30209917 25.2783973,9.62057817 25.2777768,10.0127976 C25.2771563,10.405017 24.9704729,10.7224512 24.5927801,10.7218069 L21.8690593,10.7171601 Z M18.094246,21 L2.4890873,21 C1.3158631,21 0.361111111,20.078129 0.361111111,18.9453097 C0.361111111,18.8795596 0.37671627,17.3152554 1.67194444,15.7742377 C2.41673611,14.8893511 3.43249008,14.1880168 4.69083333,13.689412 C6.21020833,13.0867029 8.09559524,12.7826087 10.2916667,12.7826087 C12.4877381,12.7826087 14.3717063,13.0880726 15.8925,13.689412 C17.1508433,14.1880168 18.1665972,14.8893511 18.9113889,15.7742377 C20.2080357,17.3152554 20.2222222,18.8795596 20.2222222,18.9453097 C20.2222222,20.078129 19.2674702,21 18.094246,21 Z M10.3518519,10.9565217 C7.36456019,10.9565217 4.93518519,8.49952174 4.93518519,5.47826087 C4.93518519,2.457 7.36456019,0 10.3518519,0 C13.3391435,0 15.7685185,2.457 15.7685185,5.47826087 C15.7685185,8.49952174 13.3391435,10.9565217 10.3518519,10.9565217 Z" id="Add-Contact-Shape" sketch:type="MSShapeGroup"></path>
            </g>
        </g>
    </g>
</svg>