<?xml version="1.0" encoding="UTF-8" standalone="no"?>
<svg width="80px" height="80px" viewBox="0 0 80 80" version="1.1" xmlns="http://www.w3.org/2000/svg" xmlns:xlink="http://www.w3.org/1999/xlink" xmlns:sketch="http://www.bohemiancoding.com/sketch/ns">
    <!-- Generator: Sketch 3.3.3 (12072) - http://www.bohemiancoding.com/sketch -->
    <title>add</title>
    <desc>Created with Sketch.</desc>
    <defs></defs>
    <g id="Page-1" stroke="none" stroke-width="1" fill="none" fill-rule="evenodd" sketch:type="MSPage">
        <g id="add" sketch:type="MSArtboardGroup" fill="#000000">
            <g sketch:type="MSLayerGroup" id="shape">
                <path d="M68.2863158,11.7136842 C60.7326316,4.16 50.6863158,0 40,0 C29.3136842,0 19.2715789,4.16 11.7136842,11.7136842 C4.15578947,19.2673684 0,29.3136842 0,39.9957895 C0,50.6778947 4.16,60.7242105 11.7136842,68.2821053 C19.2673684,75.84 29.3136842,79.9957895 40,79.9957895 C50.6863158,79.9957895 60.7284211,75.8357895 68.2863158,68.2821053 C75.8442105,60.7284211 80,50.6821053 80,39.9957895 C80,29.3094737 75.84,19.2673684 68.2863158,11.7136842 L68.2863158,11.7136842 Z M40,75.7894737 C20.2652632,75.7894737 4.21052632,59.7347368 4.21052632,40 C4.21052632,20.2652632 20.2652632,4.21052632 40,4.21052632 C59.7347368,4.21052632 75.7894737,20.2652632 75.7894737,40 C75.7894737,59.7347368 59.7347368,75.7894737 40,75.7894737 L40,75.7894737 Z" sketch:type="MSShapeGroup"></path>
                <path d="M65.2631579,37.8947368 L42.1052632,37.8947368 L42.1052632,14.7368421 C42.1052632,13.5747368 41.1621053,12.6315789 40,12.6315789 C38.8378947,12.6315789 37.8947368,13.5747368 37.8947368,14.7368421 L37.8947368,37.8947368 L14.7368421,37.8947368 C13.5747368,37.8947368 12.6315789,38.8378947 12.6315789,40 C12.6315789,41.1621053 13.5747368,42.1052632 14.7368421,42.1052632 L37.8947368,42.1052632 L37.8947368,65.2631579 C37.8947368,66.4252632 38.8378947,67.3684211 40,67.3684211 C41.1621053,67.3684211 42.1052632,66.4252632 42.1052632,65.2631579 L42.1052632,42.1052632 L65.2631579,42.1052632 C66.4252632,42.1052632 67.3684211,41.1621053 67.3684211,40 C67.3684211,38.8378947 66.4252632,37.8947368 65.2631579,37.8947368 L65.2631579,37.8947368 Z" sketch:type="MSShapeGroup"></path>
            </g>
        </g>
    </g>
</svg>
