<?xml version="1.0" encoding="UTF-8" standalone="no"?>
<svg width="20px" height="24px" viewBox="0 0 20 24" version="1.1" xmlns="http://www.w3.org/2000/svg" xmlns:xlink="http://www.w3.org/1999/xlink" xmlns:sketch="http://www.bohemiancoding.com/sketch/ns">
    <!-- Generator: Sketch 3.3.3 (12072) - http://www.bohemiancoding.com/sketch -->
    <title>Attach</title>
    <desc>Created with Sketch.</desc>
    <defs></defs>
    <g id="Page-1" stroke="none" stroke-width="1" fill="none" fill-rule="evenodd" sketch:type="MSPage">
        <g id="Spideroak-Social-Copy-9" sketch:type="MSArtboardGroup" transform="translate(-16.000000, -29.000000)" fill="#FFFFFF">
            <g id="Attach" sketch:type="MSLayerGroup" transform="translate(16.000000, 29.000000)">
                <path d="M11,9.79709594 L11,20 L11,20 L18.0092049,20 C19.1017876,20 20,19.1086907 20,18.0092049 L20,1.99079514 C20,0.898212381 19.1086907,0 18.0092049,0 L1.99079514,0 C0.898212381,0 -2.84217094e-14,0.891309342 -2.84217094e-14,1.99079514 L-2.84217094e-14,18.0092049 C-2.84217094e-14,19.1017876 0.891309342,20 1.99079514,20 L9,20 L9,9.79709594 L9,9.79709594 L6.49564317,12.3014528 L5.79709596,13 L4.40000153,11.6029056 L5.09854873,10.9043584 L8.60290558,7.40000151 L8.59999847,7.3970944 L9.99709291,6 L10,6.00290709 L10.0029071,6 L11.4000015,7.3970944 L11.3970944,7.40000151 L14.9014513,10.9043584 L15.5999985,11.6029056 L14.202904,13 L13.5043568,12.3014528 L11,9.79709594 L11,9.79709594 Z M9,20 L11,20 L11,24 L10,24 L9,24 L9,20 Z" id="Attach-Shape" sketch:type="MSShapeGroup"></path>
            </g>
        </g>
    </g>
</svg>