<?xml version="1.0" encoding="UTF-8" standalone="no"?>
<svg width="77px" height="61px" viewBox="0 0 77 61" version="1.1" xmlns="http://www.w3.org/2000/svg" xmlns:xlink="http://www.w3.org/1999/xlink" xmlns:sketch="http://www.bohemiancoding.com/sketch/ns">
    <!-- Generator: Sketch 3.3.3 (12072) - http://www.bohemiancoding.com/sketch -->
    <title>camera</title>
    <desc>Created with Sketch.</desc>
    <defs></defs>
    <g id="Page-1" stroke="none" stroke-width="1" fill="none" fill-rule="evenodd" sketch:type="MSPage">
        <g id="camera" sketch:type="MSArtboardGroup" transform="translate(-2.000000, -9.000000)" fill="#FFFFFF">
            <g sketch:type="MSLayerGroup" transform="translate(2.000000, 9.000000)" id="shape">
                <path d="M38,49 C28.076,49 20,40.924 20,31 C20,21.076 28.076,13 38,13 C47.924,13 56,21.076 56,31 C56,40.924 47.924,49 38,49 L38,49 Z M38,17 C30.28,17 24,23.28 24,31 C24,38.72 30.28,45 38,45 C45.72,45 52,38.72 52,31 C52,23.28 45.72,17 38,17 L38,17 Z" sketch:type="MSShapeGroup"></path>
                <path d="M70,61 L6,61 C2.692,61 0,58.308 0,55 L0,15 C0,11.692 2.692,9 6,9 L12,9 C13.66,9 16.24,7.932 17.416,6.756 L19.76,4.412 C21.708,2.464 25.252,0.996 28.004,0.996 L48.004,0.996 C50.756,0.996 54.3,2.464 56.248,4.412 L58.592,6.756 C59.764,7.928 62.348,9 64.008,9 L70.008,9 C73.316,9 76.008,11.692 76.008,15 L76.008,55 C76.008,58.308 73.316,61 70.008,61 L70,61 Z M6,13 C4.896,13 4,13.896 4,15 L4,55 C4,56.104 4.896,57 6,57 L70,57 C71.104,57 72,56.104 72,55 L72,15 C72,13.896 71.104,13 70,13 L64,13 C61.248,13 57.704,11.532 55.756,9.584 L53.412,7.24 C52.24,6.068 49.656,4.996 47.996,4.996 L27.996,4.996 C26.336,4.996 23.756,6.064 22.58,7.24 L20.236,9.584 C18.288,11.532 14.748,13 11.992,13 L5.992,13 L6,13 Z" sketch:type="MSShapeGroup"></path>
            </g>
        </g>
    </g>
</svg>