<?xml version="1.0" encoding="UTF-8" standalone="no"?>
<svg width="30px" height="21px" viewBox="0 0 30 21" version="1.1" xmlns="http://www.w3.org/2000/svg" xmlns:xlink="http://www.w3.org/1999/xlink" xmlns:sketch="http://www.bohemiancoding.com/sketch/ns">
    <!-- Generator: Sketch 3.3.3 (12072) - http://www.bohemiancoding.com/sketch -->
    <title>users</title>
    <desc>Created with Sketch.</desc>
    <defs></defs>
    <g id="Page-1" stroke="none" stroke-width="1" fill="none" fill-rule="evenodd" sketch:type="MSPage">
        <g id="Spideroak-Social-Copy-9" sketch:type="MSArtboardGroup" transform="translate(-75.000000, -30.000000)" fill="#FFFFFF">
            <g id="Header" sketch:type="MSLayerGroup">
                <g id="users" transform="translate(75.000000, 30.000000)" sketch:type="MSShapeGroup">
                    <path d="M27.7901786,21 L11.5848214,21 C10.3664732,21 9.375,20.078129 9.375,18.9453097 C9.375,18.8795596 9.39120536,17.3152554 10.73625,15.7742377 C11.5096875,14.8893511 12.5645089,14.1880168 13.87125,13.689412 C15.4490625,13.0867029 17.4069643,12.7826087 19.6875,12.7826087 C21.9680357,12.7826087 23.9244643,13.0880726 25.50375,13.689412 C26.8104911,14.1880168 27.8653125,14.8893511 28.63875,15.7742377 C29.9852679,17.3152554 30,18.8795596 30,18.9453097 C30,20.078129 29.0085268,21 27.7901786,21 L27.7901786,21 Z" id="Shape"></path>
                    <path d="M18.75,10.9565217 C15.6478125,10.9565217 13.125,8.49952174 13.125,5.47826087 C13.125,2.457 15.6478125,0 18.75,0 C21.8521875,0 24.375,2.457 24.375,5.47826087 C24.375,8.49952174 21.8521875,10.9565217 18.75,10.9565217 L18.75,10.9565217 Z" id="Shape"></path>
                    <path d="M2.10879219,20.9985394 C0.946144762,20.9985394 0,20.0155708 0,18.8076732 C0,18.7536319 0.0112468917,17.453718 0.932086147,16.1786338 C1.46350178,15.4410422 2.18892629,14.8582718 3.08727176,14.4434678 C4.16134992,13.9468715 5.48848314,13.6956522 7.03071316,13.6956522 C7.28236236,13.6956522 7.53119984,13.7029551 7.77160215,13.7161003 C8.15961991,13.7380089 8.45625668,14.0812446 8.43657462,14.484364 C8.42612108,14.6984688 7.03211881,15.3268261 7.03211881,18.6411498 C7.03211881,19.777906 7.03211902,20.0806967 7.03211902,20.2697113 C7.03211902,20.6728307 6.71720605,21 6.32918829,21 L2.10879219,20.9985394 Z" id="Shape"></path>
                    <path d="M7.96875,11.8695652 C5.6428125,11.8695652 3.75,10.0261304 3.75,7.76086957 C3.75,5.4956087 5.6428125,3.65217391 7.96875,3.65217391 C10.2946875,3.65217391 12.1875,5.4956087 12.1875,7.76086957 C12.1875,10.0261304 10.2946875,11.8695652 7.96875,11.8695652 L7.96875,11.8695652 Z" id="Shape"></path>
                </g>
            </g>
        </g>
    </g>
</svg>