<?xml version="1.0" encoding="UTF-8" standalone="no"?>
<svg width="384px" height="480px" viewBox="0 0 384 480" version="1.1" xmlns="http://www.w3.org/2000/svg" xmlns:xlink="http://www.w3.org/1999/xlink">
    <!-- Generator: Sketch 3.3.3 (12072) - http://www.bohemiancoding.com/sketch -->
    <title>Contact-Card</title>
    <desc>Kloak Contact Card template.</desc>
    <g id="Page-2" stroke="none" stroke-width="1" fill="none" fill-rule="evenodd" sketchtype="MSPage">
        <g id="Contact-Card" sketchtype="MSArtboardGroup">
            <rect id="Background" stroke="#979797" stroke-dasharray="5" fill="#FAFAFA" sketchtype="MSShapeGroup" x="0" y="0" width="384" height="480"></rect>
            <g id="Card-Footer" sketchtype="MSLayerGroup" transform="translate(137.000000, 448.000000)" fill="#5C5C5C">
                <path d="M3.58551565,5.928 C2.57751565,5.604 2.01351565,5.532 2.01351565,4.98 C2.01351565,4.5 2.44551565,4.248 3.03351565,4.248 C3.74151565,4.248 4.13751565,4.608 4.13751565,5.244 L5.14551565,5.244 C5.14551565,4.152 4.24551565,3.408 2.98551565,3.408 C1.94151565,3.408 1.00551565,3.912 1.00551565,5.004 C1.00551565,5.94 1.68951565,6.24 2.48151565,6.504 C3.70551565,6.912 4.20951565,6.96 4.20951565,7.536 C4.20951565,8.064 3.77751565,8.304 3.12951565,8.304 C2.38551565,8.304 1.83351565,7.992 1.83351565,7.164 L0.813515652,7.164 C0.813515652,8.484 1.84551565,9.132 3.11751565,9.132 C4.28151565,9.132 5.20551565,8.592 5.20551565,7.5 C5.20551565,6.468 4.36551565,6.18 3.58551565,5.928 L3.58551565,5.928 Z M7.53751565,3.552 L6.49351565,3.552 L6.49351565,11.952 L7.53751565,11.952 L7.53751565,8.052 C7.87351565,8.676 8.55751565,9.132 9.49351565,9.132 C11.0895156,9.132 12.2415156,7.8 12.2415156,6.276 C12.2415156,4.728 11.0775156,3.408 9.49351565,3.408 C8.55751565,3.408 7.87351565,3.864 7.53751565,4.488 L7.53751565,3.552 Z M9.37351565,4.344 C10.4895156,4.344 11.1975156,5.244 11.1975156,6.276 C11.1975156,7.308 10.4895156,8.196 9.37351565,8.196 C8.26951565,8.196 7.53751565,7.332 7.53751565,6.276 C7.53751565,5.22 8.26951565,4.344 9.37351565,4.344 L9.37351565,4.344 Z M13.6855156,9 L14.7175156,9 L14.7175156,3.552 L13.6855156,3.552 L13.6855156,9 Z M13.3615156,1.488 C13.3615156,1.944 13.7335156,2.316 14.2015156,2.316 C14.6695156,2.316 15.0415156,1.944 15.0415156,1.488 C15.0415156,1.02 14.6695156,0.636 14.2015156,0.636 C13.7335156,0.636 13.3615156,1.02 13.3615156,1.488 L13.3615156,1.488 Z M20.8535156,9 L21.8855156,9 L21.8855156,0.6 L20.8535156,0.6 L20.8535156,4.488 C20.5175156,3.864 19.8215156,3.408 18.8975156,3.408 C17.3135156,3.408 16.1495156,4.728 16.1495156,6.276 C16.1495156,7.812 17.3015156,9.132 18.8855156,9.132 C19.8215156,9.132 20.5175156,8.676 20.8535156,8.052 L20.8535156,9 Z M19.0175156,8.196 C17.9015156,8.196 17.1815156,7.32 17.1815156,6.276 C17.1815156,5.232 17.9015156,4.344 19.0175156,4.344 C20.1335156,4.344 20.8535156,5.232 20.8535156,6.276 C20.8535156,7.32 20.1335156,8.196 19.0175156,8.196 L19.0175156,8.196 Z M28.2975156,6.552 C28.3455156,6.252 28.3455156,6.024 28.3455156,5.868 C28.3455156,4.476 27.2775156,3.408 25.7655156,3.408 C24.1575156,3.408 23.1375156,4.632 23.1375156,6.252 C23.1375156,7.752 24.0255156,9.132 25.8495156,9.132 C27.2415156,9.132 28.1055156,8.316 28.2975156,7.392 L27.2415156,7.392 C27.0615156,7.86 26.6775156,8.256 25.8495156,8.256 C24.6855156,8.256 24.2055156,7.476 24.2055156,6.552 L28.2975156,6.552 Z M25.7895156,4.296 C26.6895156,4.296 27.3375156,4.872 27.3375156,5.76 L24.2175156,5.76 C24.2415156,4.812 24.9375156,4.296 25.7895156,4.296 L25.7895156,4.296 Z M33.0295156,3.552 C32.8855156,3.492 32.7055156,3.468 32.5255156,3.468 C31.7335156,3.468 30.9895156,3.936 30.7015156,4.62 L30.7015156,3.552 L29.6575156,3.552 L29.6575156,9 L30.7015156,9 L30.7015156,6.612 C30.7015156,5.304 31.2895156,4.452 32.5495156,4.452 C32.6935156,4.452 32.8135156,4.464 33.0295156,4.512 L33.0295156,3.552 Z M36.2615156,9.132 C38.0015156,9.132 39.1295156,7.812 39.1295156,6.276 C39.1295156,4.728 37.9895156,3.408 36.2615156,3.408 C34.5215156,3.408 33.3935156,4.728 33.3935156,6.276 C33.3935156,7.812 34.5095156,9.132 36.2615156,9.132 L36.2615156,9.132 Z M36.2615156,8.196 C35.1455156,8.196 34.4255156,7.32 34.4255156,6.276 C34.4255156,5.232 35.1455156,4.344 36.2615156,4.344 C37.3775156,4.344 38.0975156,5.232 38.0975156,6.276 C38.0975156,7.32 37.3775156,8.196 36.2615156,8.196 L36.2615156,8.196 Z M44.6175156,3.552 L44.6175156,4.488 C44.2815156,3.864 43.5855156,3.408 42.6615156,3.408 C41.0775156,3.408 39.9135156,4.728 39.9135156,6.276 C39.9135156,7.812 41.0655156,9.132 42.6495156,9.132 C43.5855156,9.132 44.2815156,8.676 44.6175156,8.052 L44.6175156,9 L45.6495156,9 L45.6495156,3.552 L44.6175156,3.552 Z M42.7815156,8.196 C41.6655156,8.196 40.9455156,7.32 40.9455156,6.276 C40.9455156,5.232 41.6655156,4.344 42.7815156,4.344 C43.8975156,4.344 44.6175156,5.232 44.6175156,6.276 C44.6175156,7.32 43.8975156,8.196 42.7815156,8.196 L42.7815156,8.196 Z M51.9655156,3.552 L50.6455156,3.552 L48.3655156,6.036 L48.3655156,0.6 L47.3215156,0.6 L47.3215156,9 L48.3655156,9 L48.3655156,6.528 L50.6455156,9 L51.9655156,9 L49.4815156,6.276 L51.9655156,3.552 Z M52.6055156,8.22 C52.6055156,8.7 52.9775156,9.06 53.4335156,9.06 C53.9015156,9.06 54.2855156,8.688 54.2855156,8.22 C54.2855156,7.764 53.9015156,7.38 53.4335156,7.38 C52.9775156,7.38 52.6055156,7.752 52.6055156,8.22 L52.6055156,8.22 Z M60.5775156,5.532 C60.4935156,4.452 59.6775156,3.408 58.0575156,3.408 C56.1975156,3.408 55.2855156,4.8 55.2855156,6.276 C55.2855156,7.752 56.1975156,9.132 58.0695156,9.132 C59.6055156,9.132 60.4455156,8.196 60.5895156,7.128 L59.5455156,7.128 C59.3775156,7.776 58.9695156,8.196 58.1055156,8.196 C56.8575156,8.196 56.3295156,7.308 56.3295156,6.276 C56.3295156,5.256 56.8575156,4.344 58.0815156,4.344 C58.9935156,4.344 59.4615156,4.86 59.5335156,5.532 L60.5775156,5.532 Z M64.2775156,9.132 C66.0175156,9.132 67.1455156,7.812 67.1455156,6.276 C67.1455156,4.728 66.0055156,3.408 64.2775156,3.408 C62.5375156,3.408 61.4095156,4.728 61.4095156,6.276 C61.4095156,7.812 62.5255156,9.132 64.2775156,9.132 L64.2775156,9.132 Z M64.2775156,8.196 C63.1615156,8.196 62.4415156,7.32 62.4415156,6.276 C62.4415156,5.232 63.1615156,4.344 64.2775156,4.344 C65.3935156,4.344 66.1135156,5.232 66.1135156,6.276 C66.1135156,7.32 65.3935156,8.196 64.2775156,8.196 L64.2775156,8.196 Z M76.4735156,9 L76.4735156,5.556 C76.4735156,4.356 75.9335156,3.408 74.6135156,3.408 C73.6175156,3.408 73.0175156,3.948 72.7775156,4.572 C72.5855156,3.864 71.9615156,3.408 71.0855156,3.408 C70.1855156,3.408 69.6455156,3.9 69.4175156,4.524 L69.4175156,3.552 L68.3735156,3.552 L68.3735156,9 L69.4175156,9 L69.4175156,6.228 C69.4175156,4.944 69.9695156,4.332 70.7735156,4.332 C71.4935156,4.332 71.9015156,4.836 71.9015156,5.928 L71.9015156,9 L72.9455156,9 L72.9455156,6.228 C72.9455156,4.956 73.4735156,4.332 74.2775156,4.332 C75.0215156,4.332 75.4295156,4.86 75.4295156,5.868 L75.4295156,9 L76.4735156,9 Z M78.256375,10.734375 L81.3794219,0.328125 L82.287625,0.328125 L79.1645781,10.734375 L78.256375,10.734375 Z M88.7984844,3.552 L87.4784844,3.552 L85.1984844,6.036 L85.1984844,0.6 L84.1544844,0.6 L84.1544844,9 L85.1984844,9 L85.1984844,6.528 L87.4784844,9 L88.7984844,9 L86.3144844,6.276 L88.7984844,3.552 Z M89.6784844,9 L90.7224844,9 L90.7224844,0.6 L89.6784844,0.6 L89.6784844,9 Z M94.8184844,9.132 C96.5584844,9.132 97.6864844,7.812 97.6864844,6.276 C97.6864844,4.728 96.5464844,3.408 94.8184844,3.408 C93.0784844,3.408 91.9504844,4.728 91.9504844,6.276 C91.9504844,7.812 93.0664844,9.132 94.8184844,9.132 L94.8184844,9.132 Z M94.8184844,8.196 C93.7024844,8.196 92.9824844,7.32 92.9824844,6.276 C92.9824844,5.232 93.7024844,4.344 94.8184844,4.344 C95.9344844,4.344 96.6544844,5.232 96.6544844,6.276 C96.6544844,7.32 95.9344844,8.196 94.8184844,8.196 L94.8184844,8.196 Z M103.174484,3.552 L103.174484,4.488 C102.838484,3.864 102.142484,3.408 101.218484,3.408 C99.6344844,3.408 98.4704844,4.728 98.4704844,6.276 C98.4704844,7.812 99.6224844,9.132 101.206484,9.132 C102.142484,9.132 102.838484,8.676 103.174484,8.052 L103.174484,9 L104.206484,9 L104.206484,3.552 L103.174484,3.552 Z M101.338484,8.196 C100.222484,8.196 99.5024844,7.32 99.5024844,6.276 C99.5024844,5.232 100.222484,4.344 101.338484,4.344 C102.454484,4.344 103.174484,5.232 103.174484,6.276 C103.174484,7.32 102.454484,8.196 101.338484,8.196 L101.338484,8.196 Z M110.522484,3.552 L109.202484,3.552 L106.922484,6.036 L106.922484,0.6 L105.878484,0.6 L105.878484,9 L106.922484,9 L106.922484,6.528 L109.202484,9 L110.522484,9 L108.038484,6.276 L110.522484,3.552 Z" id="Label" sketchtype="MSShapeGroup"></path>
            </g>
            <g id="Card-Metadata" sketchtype="MSLayerGroup" transform="translate(24.000000, 272.000000)">
                <rect id="Card-Metadata-Container" stroke="#B6B6B6" sketchtype="MSShapeGroup" x="0" y="0" width="336" height="160"></rect>
                <g id="Card-Metadata-Biography" transform="translate(0.000000, 56.000000)" sketchtype="MSShapeGroup">
                    <rect id="Container" stroke="#979797" x="0" y="0" width="336" height="104"></rect>
                    <path d="M9.756,22 L13.308,22 C15.612,22 16.032,20.476 16.032,19.612 C16.032,18.352 15.12,17.872 14.628,17.752 C15.204,17.596 15.96,17.068 15.96,15.928 C15.96,15.088 15.54,13.6 13.236,13.6 L9.756,13.6 L9.756,22 Z M12.912,18.448 C13.848,18.448 14.064,19.084 14.064,19.48 C14.064,19.888 13.848,20.512 12.9,20.512 L11.688,20.512 L11.688,18.448 L12.912,18.448 Z M11.688,17.02 L11.688,15.028 L12.852,15.028 C13.836,15.028 14.016,15.64 14.016,16.012 C14.016,16.432 13.8,17.02 12.852,17.02 L11.688,17.02 Z M17.2,22 L19.168,22 L19.168,13.6 L17.2,13.6 L17.2,22 Z M24.608,22.216 C27.392,22.216 29.048,20.104 29.048,17.8 C29.048,15.496 27.392,13.384 24.608,13.384 C21.812,13.384 20.156,15.496 20.156,17.8 C20.156,20.104 21.812,22.216 24.608,22.216 L24.608,22.216 Z M24.608,20.464 C23.072,20.464 22.148,19.18 22.148,17.8 C22.148,16.42 23.072,15.136 24.608,15.136 C26.132,15.136 27.068,16.42 27.068,17.8 C27.068,19.18 26.132,20.464 24.608,20.464 L24.608,20.464 Z M34.6919999,19.012 L36.1799999,19.012 C36.0359999,19.864 35.3759999,20.572 34.1399999,20.572 C32.4719999,20.572 31.6079999,19.3 31.6079999,17.836 C31.6079999,16.384 32.4719999,15.064 34.0079999,15.064 C35.0519999,15.064 35.6999999,15.676 35.8199999,16.324 L37.8959999,16.324 C37.7519999,14.728 36.2279999,13.384 34.0199999,13.384 C31.2719999,13.384 29.6159999,15.484 29.6159999,17.848 C29.6159999,20.152 31.1879999,22.216 34.0799999,22.216 C36.3239999,22.216 37.8479999,20.968 38.1839999,19.012 L39.0479999,19.012 L39.0479999,17.56 L34.6919999,17.56 L34.6919999,19.012 Z M39.8559999,22 L41.7999999,22 L41.7999999,19.672 L42.7119999,19.672 L44.1999999,22 L46.4559999,22 L44.7759999,19.348 C45.8199999,18.856 46.4439999,17.812 46.4439999,16.636 C46.4439999,15.004 45.2439999,13.6 43.3839999,13.6 L39.8559999,13.6 L39.8559999,22 Z M43.1319999,18.088 L41.7999999,18.088 L41.7999999,15.184 L43.1319999,15.184 C43.9479999,15.184 44.4759999,15.856 44.4759999,16.636 C44.4759999,17.416 43.9479999,18.088 43.1319999,18.088 L43.1319999,18.088 Z M54.5719999,22 L51.5359999,13.6 L49.7479999,13.6 L46.7479999,22 L48.8239999,22 L49.1479999,20.98 L52.1359999,20.98 L52.4599999,22 L54.5719999,22 Z M51.6559999,19.456 L49.6159999,19.456 L50.6479999,16 L51.6559999,19.456 Z M55.2239999,22 L57.1679999,22 L57.1679999,19.672 L58.7399999,19.672 C60.5999999,19.672 61.7999999,18.268 61.7999999,16.636 C61.7999999,15.004 60.5999999,13.6 58.7399999,13.6 L55.2239999,13.6 L55.2239999,22 Z M58.4999999,18.088 L57.1679999,18.088 L57.1679999,15.184 L58.4999999,15.184 C59.3159999,15.184 59.8439999,15.856 59.8439999,16.636 C59.8439999,17.416 59.3159999,18.088 58.4999999,18.088 L58.4999999,18.088 Z M67.4919999,22 L69.4239999,22 L69.4239999,13.6 L67.4919999,13.6 L67.4919999,16.996 L64.5879999,16.996 L64.5879999,13.6 L62.6439999,13.6 L62.6439999,22 L64.5879999,22 L64.5879999,18.664 L67.4919999,18.664 L67.4919999,22 Z M77.8159999,13.6 L75.6679999,13.6 L74.1319999,16.9 L72.3439999,13.6 L70.0759999,13.6 L73.0519999,18.844 L71.5039999,22 L73.6519999,22 L77.8159999,13.6 Z" id="Label" fill="#424242"></path>
                </g>
                <g id="Card-Metadata-Username" sketch:type="MSShapeGroup">
                    <rect id="Container" stroke="#979797" x="0" y="0" width="336" height="56"></rect>
                    <path d="M8.672,18.132 C8.672,19.86 9.932,21.216 11.936,21.216 C13.952,21.216 15.212,19.86 15.212,18.132 L15.212,12.6 L13.268,12.6 L13.268,18.12 C13.268,18.888 12.728,19.536 11.936,19.536 C11.144,19.536 10.616,18.888 10.616,18.12 L10.616,12.6 L8.672,12.6 L8.672,18.132 Z M16.14,18.216 C16.14,20.136 17.484,21.216 19.356,21.216 C21.156,21.216 22.464,20.208 22.464,18.576 C22.464,16.86 21,16.332 19.512,15.816 C18.756,15.552 18.312,15.24 18.312,14.7 C18.312,14.148 18.78,13.848 19.32,13.848 C20.004,13.848 20.376,14.316 20.376,15.06 L22.32,15.06 C22.32,13.632 21.312,12.384 19.344,12.384 C17.796,12.384 16.38,13.152 16.38,14.82 C16.38,16.452 17.736,16.956 19.224,17.508 C19.968,17.784 20.532,18.024 20.532,18.684 C20.532,19.272 20.064,19.668 19.416,19.668 C18.648,19.668 18.084,19.128 18.084,18.216 L16.14,18.216 Z M28.684,14.16 L28.684,12.6 L23.56,12.6 L23.56,21 L28.684,21 L28.684,19.44 L25.504,19.44 L25.504,17.592 L28.684,17.592 L28.684,16.068 L25.504,16.068 L25.504,14.16 L28.684,14.16 Z M30.02,21 L31.964,21 L31.964,18.672 L32.876,18.672 L34.364,21 L36.62,21 L34.94,18.348 C35.984,17.856 36.608,16.812 36.608,15.636 C36.608,14.004 35.408,12.6 33.548,12.6 L30.02,12.6 L30.02,21 Z M33.296,17.088 L31.964,17.088 L31.964,14.184 L33.296,14.184 C34.112,14.184 34.64,14.856 34.64,15.636 C34.64,16.416 34.112,17.088 33.296,17.088 L33.296,17.088 Z M39.696,12.6 L37.668,12.6 L37.668,21 L39.612,21 L39.612,15.6 L42.636,21 L44.664,21 L44.664,12.6 L42.732,12.6 L42.732,18.072 L39.696,12.6 Z M53.14,21 L50.104,12.6 L48.316,12.6 L45.316,21 L47.392,21 L47.716,19.98 L50.704,19.98 L51.028,21 L53.14,21 Z M50.224,18.456 L48.184,18.456 L49.216,15 L50.224,18.456 Z M62.708,12.6 L60.5,12.6 L58.28,18.444 L56.036,12.6 L53.792,12.6 L53.792,21 L55.688,21 L55.688,15.792 L57.56,21 L59,21 L60.812,15.792 L60.812,21 L62.708,21 L62.708,12.6 Z M69.24,14.16 L69.24,12.6 L64.116,12.6 L64.116,21 L69.24,21 L69.24,19.44 L66.06,19.44 L66.06,17.592 L69.24,17.592 L69.24,16.068 L66.06,16.068 L66.06,14.16 L69.24,14.16 Z" id="Label" fill="#424242"></path>
                </g>
            </g>
            <g id="Card-Identifiers" sketchtype="MSLayerGroup" transform="translate(24.000000, 96.000000)">
                <rect id="Photo-Mask" fill="#FFFFFF" sketchtype="MSShapeGroup" x="0" y="0" width="160" height="160"></rect>
                <rect id="QR-Code-Container" stroke="#424242" sketchtype="MSShapeGroup" x="176" y="0" width="160" height="160"></rect>
            </g>
            <g id="Card-Header" sketchtype="MSLayerGroup" transform="translate(23.000000, 16.000000)">
                <path d="M257,53 L337,53 L338,53 L338,51 L337,51 L257,51 L256,51 L256,53 L257,53 L257,53 Z" id="Separator" fill="#424242" sketchtype="MSShapeGroup"></path>
                <path d="M1,53 L81,53 L82,53 L82,51 L81,51 L1,51 L0,51 L0,53 L1,53 L1,53 Z" id="Separator" fill="#424242" sketchtype="MSShapeGroup"></path>
                <path d="M104.595,59 L108.105,59 L103.119,52.7 L108.105,46.4 L104.595,46.4 L100.527,51.746 L100.527,46.4 L97.611,46.4 L97.611,59 L100.527,59 L100.527,53.672 L104.595,59 Z M112.189,56.48 L112.189,46.4 L109.273,46.4 L109.273,59 L115.771,59 L115.771,56.48 L112.189,56.48 Z M123.275,59.324 C127.451,59.324 129.935,56.156 129.935,52.7 C129.935,49.244 127.451,46.076 123.275,46.076 C119.081,46.076 116.597,49.244 116.597,52.7 C116.597,56.156 119.081,59.324 123.275,59.324 L123.275,59.324 Z M123.275,56.696 C120.971,56.696 119.585,54.77 119.585,52.7 C119.585,50.63 120.971,48.704 123.275,48.704 C125.561,48.704 126.965,50.63 126.965,52.7 C126.965,54.77 125.561,56.696 123.275,56.696 L123.275,56.696 Z M142.119,59 L137.565,46.4 L134.883,46.4 L130.383,59 L133.497,59 L133.983,57.47 L138.465,57.47 L138.951,59 L142.119,59 Z M137.745,55.184 L134.685,55.184 L136.233,50 L137.745,55.184 Z M150.181,59 L153.691,59 L148.705,52.7 L153.691,46.4 L150.181,46.4 L146.113,51.746 L146.113,46.4 L143.197,46.4 L143.197,59 L146.113,59 L146.113,53.672 L150.181,59 Z M168.357,54.482 C167.997,55.724 166.881,56.696 165.189,56.696 C162.903,56.696 161.373,54.914 161.373,52.7 C161.373,50.612 162.741,48.704 165.153,48.704 C167.007,48.704 168.123,49.82 168.393,51.296 L171.435,51.296 C171.093,48.398 168.807,46.076 165.117,46.076 C160.815,46.076 158.403,49.244 158.403,52.7 C158.403,56.228 160.941,59.324 165.153,59.324 C168.681,59.324 170.967,57.146 171.453,54.482 L168.357,54.482 Z M179.065,59.324 C183.241,59.324 185.725,56.156 185.725,52.7 C185.725,49.244 183.241,46.076 179.065,46.076 C174.871,46.076 172.387,49.244 172.387,52.7 C172.387,56.156 174.871,59.324 179.065,59.324 L179.065,59.324 Z M179.065,56.696 C176.761,56.696 175.375,54.77 175.375,52.7 C175.375,50.63 176.761,48.704 179.065,48.704 C181.351,48.704 182.755,50.63 182.755,52.7 C182.755,54.77 181.351,56.696 179.065,56.696 L179.065,56.696 Z M190.349,46.4 L187.307,46.4 L187.307,59 L190.223,59 L190.223,50.9 L194.759,59 L197.801,59 L197.801,46.4 L194.903,46.4 L194.903,54.608 L190.349,46.4 Z M201.921,59 L204.837,59 L204.837,48.92 L207.699,48.92 L207.699,46.4 L199.077,46.4 L199.077,48.92 L201.921,48.92 L201.921,59 Z M219.577,59 L215.023,46.4 L212.341,46.4 L207.841,59 L210.955,59 L211.441,57.47 L215.923,57.47 L216.409,59 L219.577,59 Z M215.203,55.184 L212.143,55.184 L213.691,50 L215.203,55.184 Z M229.979,54.482 C229.619,55.724 228.503,56.696 226.811,56.696 C224.525,56.696 222.995,54.914 222.995,52.7 C222.995,50.612 224.363,48.704 226.775,48.704 C228.629,48.704 229.745,49.82 230.015,51.296 L233.057,51.296 C232.715,48.398 230.429,46.076 226.739,46.076 C222.437,46.076 220.025,49.244 220.025,52.7 C220.025,56.228 222.563,59.324 226.775,59.324 C230.303,59.324 232.589,57.146 233.075,54.482 L229.979,54.482 Z M236.547,59 L239.463,59 L239.463,48.92 L242.325,48.92 L242.325,46.4 L233.703,46.4 L233.703,48.92 L236.547,48.92 L236.547,59 Z" id="KLOAK-CONTACT" fill="#424242" sketchtype="MSShapeGroup"></path>
                <g id="Kloak-Logo" transform="translate(153.000000, 0.000000)" sketchtype="MSShapeGroup">
                    <path d="M0,24 L0,36 L6,30 L0,24 L0,24 Z M12,0 L12,12 L24,12 L12,24 L0,12 L12,0 L12,0 Z" id="Kloak-Logo-Background-Shape" fill="#2D2D2D"></path>
                    <path d="M0,12 L24,36 L12,36 L0,24 L0,12 L0,12 Z" id="Kloak-Logo-Foreground-Shape" fill="#424242"></path>
                </g>
            </g>
        </g>
    </g>
</svg>
