<?xml version="1.0" encoding="UTF-8" standalone="no"?>
<svg width="80px" height="60px" viewBox="0 0 80 60" version="1.1" xmlns="http://www.w3.org/2000/svg" xmlns:xlink="http://www.w3.org/1999/xlink" xmlns:sketch="http://www.bohemiancoding.com/sketch/ns">
    <!-- Generator: Sketch 3.3.3 (12072) - http://www.bohemiancoding.com/sketch -->
    <title>contacts</title>
    <desc>Created with Sketch.</desc>
    <defs></defs>
    <g id="Page-1" stroke="none" stroke-width="1" fill="none" fill-rule="evenodd" sketch:type="MSPage">
        <g id="contacts" sketch:type="MSArtboardGroup" transform="translate(0.000000, -10.000000)" fill="#FFFFFF">
            <g sketch:type="MSLayerGroup" transform="translate(0.000000, 10.000000)" id="shape">
                <path d="M74,60 L30,60 C26.692,60 24,57.308 24,54 C24,53.808 24.044,49.24 27.696,44.74 C29.796,42.156 32.66,40.108 36.208,38.652 C40.492,36.892 45.808,36.004 52,36.004 C58.192,36.004 63.504,36.896 67.792,38.652 C71.34,40.108 74.204,42.156 76.304,44.74 C79.96,49.24 80,53.808 80,54 C80,57.308 77.308,60 74,60 L74,60 Z M28,54.012 C28.004,55.112 28.9,56 30,56 L74,56 C75.1,56 75.996,55.108 76,54.012 C75.996,53.872 75.872,50.432 73.044,47.076 C69.148,42.448 61.872,40.004 52,40.004 C42.128,40.004 34.852,42.452 30.956,47.076 C28.128,50.436 28.004,53.872 28,54.012 L28,54.012 Z" sketch:type="MSShapeGroup"></path>
                <path d="M52,32 C43.176,32 36,24.824 36,16 C36,7.176 43.176,0 52,0 C60.824,0 68,7.176 68,16 C68,24.824 60.824,32 52,32 L52,32 Z M52,4 C45.384,4 40,9.384 40,16 C40,22.616 45.384,28 52,28 C58.616,28 64,22.616 64,16 C64,9.384 58.616,4 52,4 L52,4 Z" sketch:type="MSShapeGroup"></path>
                <path d="M18,60 L6,60 C2.692,60 0,57.308 0,54 C0,53.852 0.032,50.292 2.652,46.8 C4.164,44.78 6.228,43.184 8.784,42.048 C11.84,40.688 15.616,40 20.004,40 C20.72,40 21.428,40.02 22.112,40.056 C23.216,40.116 24.06,41.056 24.004,42.16 C23.948,43.264 23.004,44.112 21.9,44.052 C21.288,44.02 20.652,44.004 20.008,44.004 C4.432,44.004 4.02,53.52 4.008,54.016 C4.012,55.112 4.908,56.004 6.008,56.004 L18.008,56.004 C19.112,56.004 20.008,56.9 20.008,58.004 C20.008,59.108 19.112,60.004 18.008,60.004 L18,60 Z" sketch:type="MSShapeGroup"></path>
                <path d="M20,36 C13.384,36 8,30.616 8,24 C8,17.384 13.384,12 20,12 C26.616,12 32,17.384 32,24 C32,30.616 26.616,36 20,36 L20,36 Z M20,16 C15.588,16 12,19.588 12,24 C12,28.412 15.588,32 20,32 C24.412,32 28,28.412 28,24 C28,19.588 24.412,16 20,16 L20,16 Z" sketch:type="MSShapeGroup"></path>
            </g>
        </g>
    </g>
</svg>