<?xml version="1.0" encoding="UTF-8" standalone="no"?>
<svg width="30px" height="23px" viewBox="0 0 30 23" version="1.1" xmlns="http://www.w3.org/2000/svg" xmlns:xlink="http://www.w3.org/1999/xlink" xmlns:sketch="http://www.bohemiancoding.com/sketch/ns">
    <!-- Generator: Sketch 3.3.3 (12072) - http://www.bohemiancoding.com/sketch -->
    <title>Contacts</title>
    <desc>Created with Sketch.</desc>
    <defs></defs>
    <g id="Page-1" stroke="none" stroke-width="1" fill="none" fill-rule="evenodd" sketch:type="MSPage">
        <g id="Spideroak-Social-Copy-9" sketch:type="MSArtboardGroup" transform="translate(-44.000000, -29.000000)" fill="#FFFFFF">
            <g id="Contacts" sketch:type="MSLayerGroup" transform="translate(44.000000, 29.000000)">
                <path d="M2.10879219,21.9985394 C0.946144762,21.9985394 0,21.0155708 0,19.8076732 C0,19.7536319 0.0112468917,18.453718 0.932086147,17.1786338 C1.46350178,16.4410422 2.18892629,15.8582718 3.08727176,15.4434678 C4.16134992,14.9468715 5.48848314,14.6956522 7.03071316,14.6956522 C7.28236236,14.6956522 7.53119984,14.7029551 7.77160215,14.7161003 C8.15961991,14.7380089 8.45625668,15.0812446 8.43657462,15.484364 C8.42612108,15.6984688 7.03211881,16.3268261 7.03211881,19.6411498 C7.03211881,20.777906 7.03211902,21.0806967 7.03211902,21.2697113 C7.03211902,21.6728307 6.71720605,22 6.32918829,22 L2.10879219,21.9985394 Z M7.96875,12.8695652 C5.6428125,12.8695652 3.75,11.0261304 3.75,8.76086957 C3.75,6.4956087 5.6428125,4.65217391 7.96875,4.65217391 C10.2946875,4.65217391 12.1875,6.4956087 12.1875,8.76086957 C12.1875,11.0261304 10.2946875,12.8695652 7.96875,12.8695652 Z M27.4151786,22.2173913 L11.2098214,22.2173913 C9.99147321,22.2173913 9,21.2955203 9,20.162701 C9,20.0969509 9.01620536,18.5326467 10.36125,16.991629 C11.1346875,16.1067424 12.1895089,15.4054081 13.49625,14.9068033 C15.0740625,14.3040942 17.0319643,14 19.3125,14 C21.5930357,14 23.5494643,14.305464 25.12875,14.9068033 C26.4354911,15.4054081 27.4903125,16.1067424 28.26375,16.991629 C29.6102679,18.5326467 29.625,20.0969509 29.625,20.162701 C29.625,21.2955203 28.6335268,22.2173913 27.4151786,22.2173913 Z M19,12 C15.691,12 13,9.309 13,6 C13,2.691 15.691,0 19,0 C22.309,0 25,2.691 25,6 C25,9.309 22.309,12 19,12 Z" id="Contacts-Chape" sketch:type="MSShapeGroup"></path>
            </g>
        </g>
    </g>
</svg>