<?xml version="1.0" encoding="UTF-8" standalone="no"?>
<svg width="79px" height="79px" viewBox="0 0 79 79" version="1.1" xmlns="http://www.w3.org/2000/svg" xmlns:xlink="http://www.w3.org/1999/xlink" xmlns:sketch="http://www.bohemiancoding.com/sketch/ns">
    <!-- Generator: Sketch 3.3.3 (12072) - http://www.bohemiancoding.com/sketch -->
    <title>help</title>
    <desc>Created with Sketch.</desc>
    <defs></defs>
    <g id="Page-1" stroke="none" stroke-width="1" fill="none" fill-rule="evenodd" sketch:type="MSPage">
        <g id="help" sketch:type="MSArtboardGroup" transform="translate(-1.000000, -1.000000)" fill="#FFFFFF">
            <g sketch:type="MSLayerGroup" transform="translate(1.000000, 1.000000)" id="shape">
                <path d="M67.4327368,11.5672632 C59.9734737,4.108 50.0527368,0 39.5,0 C28.9472632,0 19.0306842,4.108 11.5672632,11.5672632 C4.10384211,19.0265263 0,28.9472632 0,39.4958421 C0,50.0444211 4.108,59.9651579 11.5672632,67.4285789 C19.0265263,74.892 28.9472632,78.9958421 39.5,78.9958421 C50.0527368,78.9958421 59.9693158,74.8878421 67.4327368,67.4285789 C74.8961579,59.9693158 79,50.0485789 79,39.4958421 C79,28.9431053 74.892,19.0265263 67.4327368,11.5672632 L67.4327368,11.5672632 Z M39.5,74.8421053 C20.0119474,74.8421053 4.15789474,58.9880526 4.15789474,39.5 C4.15789474,20.0119474 20.0119474,4.15789474 39.5,4.15789474 C58.9880526,4.15789474 74.8421053,20.0119474 74.8421053,39.5 C74.8421053,58.9880526 58.9880526,74.8421053 39.5,74.8421053 L39.5,74.8421053 Z" sketch:type="MSShapeGroup"></path>
                <path d="M27.34375,29.7695312 L32.3535156,29.7695312 C32.6757812,25.5800781 35.4882812,22.9726562 39.9121094,22.9726562 C44.2773438,22.9726562 47.0898438,25.6386719 47.0898438,29.2714844 C47.0898438,32.40625 45.7714844,34.2519531 42.3730469,36.3320312 C38.359375,38.734375 36.484375,41.3710938 36.5136719,45.2382812 L36.5136719,47.9335938 L41.640625,47.9335938 L41.640625,46.0292969 C41.640625,42.953125 42.6953125,41.3125 46.4160156,39.1152344 C50.1660156,36.859375 52.5390625,33.6074219 52.5390625,29.0078125 C52.5390625,22.9726562 47.5,18.4023438 40.1171875,18.4023438 C31.8847656,18.4023438 27.6660156,23.4414062 27.34375,29.7695312 L27.34375,29.7695312 Z M39.4726562,61.5273438 C41.8457031,61.5273438 43.515625,59.828125 43.515625,57.4550781 C43.515625,55.0527344 41.8457031,53.3535156 39.4726562,53.3535156 C37.0996094,53.3535156 35.4003906,55.0527344 35.4003906,57.4550781 C35.4003906,59.828125 37.0996094,61.5273438 39.4726562,61.5273438 L39.4726562,61.5273438 Z" sketch:type="MSShapeGroup"></path>
            </g>
        </g>
    </g>
</svg>