<?xml version="1.0" encoding="UTF-8" standalone="no"?>
<svg width="79px" height="79px" viewBox="0 0 79 79" version="1.1" xmlns="http://www.w3.org/2000/svg" xmlns:xlink="http://www.w3.org/1999/xlink" xmlns:sketch="http://www.bohemiancoding.com/sketch/ns">
    <!-- Generator: Sketch 3.3.3 (12072) - http://www.bohemiancoding.com/sketch -->
    <title>info</title>
    <desc>Created with Sketch.</desc>
    <defs></defs>
    <g id="Page-1" stroke="none" stroke-width="1" fill="none" fill-rule="evenodd" sketch:type="MSPage">
        <g id="info" sketch:type="MSArtboardGroup" transform="translate(-1.000000, -1.000000)" fill="#FFFFFF">
            <g sketch:type="MSLayerGroup" transform="translate(1.000000, 1.000000)" id="shape">
                <path d="M67.4327368,11.5672632 C59.9734737,4.108 50.0527368,0 39.5,0 C28.9472632,0 19.0306842,4.108 11.5672632,11.5672632 C4.10384211,19.0265263 0,28.9472632 0,39.4958421 C0,50.0444211 4.108,59.9651579 11.5672632,67.4285789 C19.0265263,74.892 28.9472632,78.9958421 39.5,78.9958421 C50.0527368,78.9958421 59.9693158,74.8878421 67.4327368,67.4285789 C74.8961579,59.9693158 79,50.0485789 79,39.4958421 C79,28.9431053 74.892,19.0265263 67.4327368,11.5672632 L67.4327368,11.5672632 Z M39.5,74.8421053 C20.0119474,74.8421053 4.15789474,58.9880526 4.15789474,39.5 C4.15789474,20.0119474 20.0119474,4.15789474 39.5,4.15789474 C58.9880526,4.15789474 74.8421053,20.0119474 74.8421053,39.5 C74.8421053,58.9880526 58.9880526,74.8421053 39.5,74.8421053 L39.5,74.8421053 Z" sketch:type="MSShapeGroup"></path>
                <path d="M48.0886076,55.6825397 L47.5316456,57.968254 C45.8607511,58.6285747 44.5274311,59.1322734 43.5316456,59.4793651 C42.53586,59.8264568 41.3797534,60 40.0632911,60 C38.0379646,60 36.4641406,59.5047669 35.3417722,58.5142857 C34.2194037,57.5238046 33.6582278,56.2666743 33.6582278,54.7428571 C33.6582278,54.1502616 33.7004215,53.5449766 33.7848101,52.9269841 C33.8691987,52.3089916 34.0042185,51.6105859 34.1898734,50.831746 L36.2658228,43.415873 C36.4514777,42.7047583 36.6075943,42.0317492 36.7341772,41.3968254 C36.8607601,40.7619016 36.9240506,40.1820132 36.9240506,39.6571429 C36.9240506,38.70899 36.7299597,38.0486791 36.3417722,37.6761905 C35.9535846,37.3037018 35.2109759,37.1174603 34.1139241,37.1174603 C33.573837,37.1174603 33.0210999,37.2021156 32.4556962,37.3714286 C31.8902925,37.5407416 31.4050653,37.7015865 31,37.8539683 L31.556962,35.568254 C32.9240575,35.009521 34.2320613,34.5312189 35.4810127,34.1333333 C36.7299641,33.7354477 37.9113868,33.5365079 39.0253165,33.5365079 C41.0337653,33.5365079 42.582273,34.0232756 43.6708861,34.9968254 C44.7594991,35.9703752 45.3037975,37.235971 45.3037975,38.7936508 C45.3037975,39.1153455 45.2658232,39.6825356 45.1898734,40.4952381 C45.1139237,41.3079406 44.9746846,42.0529067 44.7721519,42.7301587 L42.6962025,50.1206349 C42.5274253,50.7132305 42.3755281,51.3904724 42.2405063,52.152381 C42.1054846,52.9142895 42.0379747,53.4899451 42.0379747,53.8793651 C42.0379747,54.8613806 42.2573818,55.530157 42.6962025,55.8857143 C43.1350233,56.2412716 43.8945094,56.4190476 44.9746835,56.4190476 C45.4810152,56.4190476 46.0548491,56.3301596 46.6962025,56.152381 C47.3375559,55.9746023 47.8016863,55.8179901 48.0886076,55.6825397 L48.0886076,55.6825397 Z M48.6202532,24.6730159 C48.6202532,25.9597948 48.1350259,27.0560801 47.164557,27.9619048 C46.194088,28.8677294 45.0253233,29.3206349 43.6582278,29.3206349 C42.2911324,29.3206349 41.1181484,28.8677294 40.1392405,27.9619048 C39.1603327,27.0560801 38.6708861,25.9597948 38.6708861,24.6730159 C38.6708861,23.386237 39.1603327,22.2857189 40.1392405,21.3714286 C41.1181484,20.4571383 42.2911324,20 43.6582278,20 C45.0253233,20 46.194088,20.4571383 47.164557,21.3714286 C48.1350259,22.2857189 48.6202532,23.386237 48.6202532,24.6730159 L48.6202532,24.6730159 Z" sketch:type="MSShapeGroup"></path>
            </g>
        </g>
    </g>
</svg>