<?xml version="1.0" encoding="UTF-8" standalone="no"?>
<svg width="22px" height="32px" viewBox="0 0 22 32" version="1.1" xmlns="http://www.w3.org/2000/svg" xmlns:xlink="http://www.w3.org/1999/xlink" xmlns:sketch="http://www.bohemiancoding.com/sketch/ns">
    <!-- Generator: Sketch 3.3.3 (12072) - http://www.bohemiancoding.com/sketch -->
    <title>icon-kloak</title>
    <desc>Created with Sketch.</desc>
    <defs></defs>
    <g id="Page-2" stroke="none" stroke-width="1" fill="none" fill-rule="evenodd" sketch:type="MSPage">
        <g id="Spideroak-Social-Copy-15" sketch:type="MSArtboardGroup" transform="translate(-196.000000, -23.000000)" fill="#FFFFFF">
            <g id="Header-2-Copy" sketch:type="MSLayerGroup" transform="translate(196.000000, 23.000000)">
                <g id="Kloak-+-Imported-Layers" sketch:type="MSShapeGroup">
                    <g id="Imported-Layers" transform="translate(0.250000, 0.000000)">
                        <path d="M10.9388905,0.00443802085 L0.161659698,10.665636 L10.9388905,10.665636 L10.9388905,0.00443802085 L10.9388905,0.00443802085 Z M21.7161213,10.665636 L10.9388905,21.3268528 L10.9388905,10.665636 L21.7161213,10.665636 L21.7161213,10.665636 Z M0.161659698,10.665636 L10.9388905,21.3268528 L10.9388905,10.665636 L0.161659698,10.665636 L0.161659698,10.665636 Z M0.161659698,21.3268528 L10.9388905,31.9880508 L10.9388905,21.3268528 L0.161659698,21.3268528 L0.161659698,21.3268528 Z M10.9388905,21.3268528 L0.161659698,10.665636 L0.161659698,21.3268528 L10.9388905,21.3268528 L10.9388905,21.3268528 Z M10.9388905,21.3268528 L21.7161213,31.9880508 L10.9388905,31.9880508 L10.9388905,21.3268528 L10.9388905,21.3268528 Z M0.161659698,31.9880508 L0.161659698,21.3268528 L5.55027531,26.6574516 L0.161659698,31.9880508 Z" id="icon-kloak"></path>
                    </g>
                </g>
            </g>
        </g>
    </g>
</svg>