<?xml version="1.0" encoding="UTF-8" standalone="no"?>
<svg width="72px" height="130px" viewBox="0 0 72 130" version="1.1" xmlns="http://www.w3.org/2000/svg" xmlns:xlink="http://www.w3.org/1999/xlink" xmlns:sketch="http://www.bohemiancoding.com/sketch/ns">
    <!-- Generator: Sketch 3.3.3 (12072) - http://www.bohemiancoding.com/sketch -->
    <title>Header 2 Copy + Imported Layers</title>
    <desc>Created with Sketch.</desc>
    <defs></defs>
    <g id="Page-2" stroke="none" stroke-width="1" fill="none" fill-rule="evenodd" sketch:type="MSPage">
        <g id="iPhone-6-Copy-3" sketch:type="MSArtboardGroup" transform="translate(-152.000000, -105.000000)" fill="#FFFFFF">
            <g id="kloak-hoodie-+-Status-Bar-/-Black-2-+-Group-+-Header-2-+-Header-2-Copy-+-Bitmap-+-a-+-Line-+-Imported-Layers-Mask" sketch:type="MSLayerGroup" transform="translate(-1.000000, -1.000000)">
                <g id="Header-2-Copy-+-Imported-Layers" transform="translate(153.000000, 106.000000)" sketch:type="MSShapeGroup">
                    <g id="Header-2-Copy" transform="translate(0.000000, 112.000000)">
                        <path d="M10.3542048,17 L17.5339231,17 L11.7414724,8.6 L17.5339231,0.2 L10.3542048,0.2 L6.46012031,6.8 L6.46012031,0.2 L0.253923132,0.2 L0.253923132,17 L6.46012031,17 L6.46012031,10.424 L10.3542048,17 Z M17.6914669,17 L23.5325936,17 L23.5325936,0.2 L17.6914669,0.2 L17.6914669,17 Z M31.8460208,17.36 C36.7866405,17.36 39.4151475,14.432 39.4151475,10.856 C39.4151475,7.232 36.7866405,4.328 31.8460208,4.328 C26.905401,4.328 24.276894,7.232 24.276894,10.856 C24.276894,14.432 26.905401,17.36 31.8460208,17.36 L31.8460208,17.36 Z M31.8460208,12.608 C30.7994856,12.608 30.1180208,11.864 30.1180208,10.856 C30.1180208,9.824 30.7994856,9.104 31.8460208,9.104 C32.892556,9.104 33.5740208,9.824 33.5740208,10.856 C33.5740208,11.864 32.892556,12.608 31.8460208,12.608 L31.8460208,12.608 Z M48.9211381,4.688 L48.9211381,6.608 C48.6290817,5.696 47.0714479,4.4 45.1487437,4.4 C41.9117859,4.4 39.6240113,6.824 39.6240113,10.856 C39.6240113,14.888 41.9117859,17.312 45.1487437,17.312 C47.0714479,17.312 48.6290817,16.016 48.9211381,15.104 L48.9211381,17 L54.7622648,17 L54.7622648,4.688 L48.9211381,4.688 Z M47.1931381,12.608 C46.1952789,12.608 45.4651381,11.816 45.4651381,10.856 C45.4651381,9.896 46.1952789,9.104 47.1931381,9.104 C48.1909972,9.104 48.9211381,9.896 48.9211381,10.856 C48.9211381,11.816 48.1909972,12.608 47.1931381,12.608 L47.1931381,12.608 Z M71.2776075,4.688 L64.6089877,4.688 L62.0778328,9.44 L62.0778328,0.2 L56.2367061,0.2 L56.2367061,17 L62.0778328,17 L62.0778328,12.296 L64.5603117,17 L71.2532694,17 L67.0427906,10.856 L71.2776075,4.688 Z" id="Kloak"></path>
                    </g>
                    <g id="Imported-Layers" transform="translate(1.000000, 0.000000)">
                        <path d="M34.8055607,0.0142848796 L0.514371765,34.3300159 L34.8055607,34.3300159 L34.8055607,0.0142848796 Z M34.8055607,68.6458074 L34.8055607,34.3300159 L69.0967496,34.3300159 L34.8055607,68.6458074 Z M0.514371765,34.3300159 L34.8055607,68.6458074 L34.8055607,34.3300159 L0.514371765,34.3300159 Z" id="Fill-1" fill-opacity="0.764294611"></path>
                        <path d="M0.514371765,68.6458074 L34.8055607,102.961538 L34.8055607,68.6458074 L0.514371765,68.6458074 Z M34.8055607,68.6458074 L0.514371765,34.3300159 L0.514371765,68.6458074 L34.8055607,68.6458074 Z M34.8055607,68.6458074 L69.0967496,102.961538 L34.8055607,102.961538 L34.8055607,68.6458074 Z" id="Fill-3"></path>
                        <path d="M34.8055607,68.6458074 L0.514371765,102.961538 L0.514371765,68.6458074 L34.8055607,68.6458074 L34.8055607,68.6458074 Z" id="Fill-4" fill-opacity="0.767493207"></path>
                    </g>
                </g>
            </g>
        </g>
    </g>
</svg>