<?xml version="1.0" encoding="UTF-8" standalone="no"?>
<svg width="48px" height="80px" viewBox="0 0 48 80" version="1.1" xmlns="http://www.w3.org/2000/svg" xmlns:xlink="http://www.w3.org/1999/xlink" xmlns:sketch="http://www.bohemiancoding.com/sketch/ns">
    <!-- Generator: Sketch 3.3.3 (12072) - http://www.bohemiancoding.com/sketch -->
    <title>location</title>
    <desc>Created with Sketch.</desc>
    <defs></defs>
    <g id="Page-1" stroke="none" stroke-width="1" fill="none" fill-rule="evenodd" sketch:type="MSPage">
        <g id="location" sketch:type="MSArtboardGroup" transform="translate(-16.000000, 0.000000)" fill="#000000">
            <g sketch:type="MSLayerGroup" transform="translate(16.000000, 0.000000)" id="shape">
                <path d="M24,80 C23.388,80 22.808,79.72 22.428,79.236 C22.2,78.944 16.756,71.98 11.24,61.696 C7.992,55.644 5.4,49.7 3.54,44.032 C1.192,36.884 0.004,30.144 0.004,24 C0.004,10.768 10.772,0 24.004,0 C37.236,0 48.004,10.768 48.004,24 C48.004,30.144 46.812,36.88 44.468,44.032 C42.608,49.7 40.016,55.644 36.768,61.696 C31.248,71.98 25.808,78.944 25.58,79.236 C25.2,79.72 24.62,80 24.008,80 L24,80 Z M24,4 C12.972,4 4,12.972 4,24 C4,37.016 9.852,50.656 14.764,59.804 C18.372,66.528 22,71.86 24,74.644 C26.008,71.848 29.66,66.484 33.272,59.74 C38.164,50.608 44,36.992 44,24 C44,12.972 35.028,4 24,4 L24,4 Z" sketch:type="MSShapeGroup"></path>
                <path d="M24,36 C17.384,36 12,30.616 12,24 C12,17.384 17.384,12 24,12 C30.616,12 36,17.384 36,24 C36,30.616 30.616,36 24,36 L24,36 Z M24,16 C19.588,16 16,19.588 16,24 C16,28.412 19.588,32 24,32 C28.412,32 32,28.412 32,24 C32,19.588 28.412,16 24,16 L24,16 Z" sketch:type="MSShapeGroup"></path>
            </g>
        </g>
    </g>
</svg>
