<?xml version="1.0" encoding="UTF-8" standalone="no"?>
<svg width="66px" height="54px" viewBox="0 0 66 54" version="1.1" xmlns="http://www.w3.org/2000/svg" xmlns:xlink="http://www.w3.org/1999/xlink" xmlns:sketch="http://www.bohemiancoding.com/sketch/ns">
    <!-- Generator: Sketch 3.3.3 (12072) - http://www.bohemiancoding.com/sketch -->
    <title>media</title>
    <desc>Created with Sketch.</desc>
    <defs></defs>
    <g id="Page-1" stroke="none" stroke-width="1" fill="none" fill-rule="evenodd" sketch:type="MSPage">
        <g id="media" sketch:type="MSArtboardGroup" transform="translate(-7.000000, -13.000000)" fill="#FFFFFF">
            <g sketch:type="MSLayerGroup" transform="translate(7.000000, 13.000000)" id="shape">
                <path d="M45.375,29.0769231 C40.825125,29.0769231 37.125,25.3509231 37.125,20.7692308 C37.125,16.1875385 40.825125,12.4615385 45.375,12.4615385 C49.924875,12.4615385 53.625,16.1875385 53.625,20.7692308 C53.625,25.3509231 49.924875,29.0769231 45.375,29.0769231 L45.375,29.0769231 Z M45.375,16.6153846 C43.102125,16.6153846 41.25,18.4804615 41.25,20.7692308 C41.25,23.058 43.102125,24.9230769 45.375,24.9230769 C47.647875,24.9230769 49.5,23.058 49.5,20.7692308 C49.5,18.4804615 47.647875,16.6153846 45.375,16.6153846 L45.375,16.6153846 Z" sketch:type="MSShapeGroup"></path>
                <path d="M63.9375,0 L2.0625,0 C0.924,0 0,0.930461538 0,2.07692308 L0,51.9230769 C0,53.0695385 0.924,54 2.0625,54 L63.9375,54 C65.076,54 66,53.0695385 66,51.9230769 L66,2.07692308 C66,0.930461538 65.076,0 63.9375,0 L63.9375,0 Z M4.125,40.2507692 L17.362125,25.2512308 C17.700375,24.8690769 18.14175,24.6530769 18.607875,24.6489231 C19.074,24.6447692 19.5195,24.8483077 19.866,25.2221538 L42.689625,49.8461538 L4.125,49.8461538 L4.125,40.2507692 L4.125,40.2507692 Z M61.875,49.8461538 L48.332625,49.8461538 L22.8855,22.3892308 C21.734625,21.1472308 20.200125,20.4743077 18.558375,20.4950769 C16.916625,20.5158462 15.398625,21.2261538 14.28075,22.4930769 L4.125,33.9992308 L4.125,4.15384615 L61.875,4.15384615 L61.875,49.8461538 L61.875,49.8461538 Z" sketch:type="MSShapeGroup"></path>
            </g>
        </g>
    </g>
</svg>