<?xml version="1.0" encoding="UTF-8" standalone="no"?>
<svg width="78px" height="54px" viewBox="0 0 78 54" version="1.1" xmlns="http://www.w3.org/2000/svg" xmlns:xlink="http://www.w3.org/1999/xlink" xmlns:sketch="http://www.bohemiancoding.com/sketch/ns">
    <!-- Generator: Sketch 3.3.3 (12072) - http://www.bohemiancoding.com/sketch -->
    <title>menu</title>
    <desc>Created with Sketch.</desc>
    <defs></defs>
    <g id="Page-1" stroke="none" stroke-width="1" fill="none" fill-rule="evenodd" sketch:type="MSPage">
        <g id="menu" sketch:type="MSArtboardGroup" transform="translate(-1.000000, -13.000000)" fill="#FFFFFF">
            <g sketch:type="MSLayerGroup" transform="translate(1.000000, 13.000000)" id="shape">
                <path d="M75.5714286,4.93522626 L2.42857143,4.93522626 C1.76190143,4.93522626 1.19047857,4.69565457 0.714285714,4.21650399 C0.238092857,3.73735342 0,3.16238135 0,2.49157054 C0,1.78881636 0.238092857,1.19787285 0.714285714,0.718722272 C1.19047857,0.239571695 1.76190143,0 2.42857143,0 L75.5714286,0 C76.2380986,0 76.8095214,0.239571695 77.2857143,0.718722272 C77.7619071,1.19787285 78,1.78881636 78,2.49157054 C78,3.16238135 77.7619071,3.73735342 77.2857143,4.21650399 C76.8095214,4.69565457 76.2380986,4.93522626 75.5714286,4.93522626 L75.5714286,4.93522626 Z M75.5714286,29.4676131 L2.42857143,29.4676131 C1.76190143,29.4676131 1.19047857,29.2280414 0.714285714,28.7488909 C0.238092857,28.2697403 0,27.6947682 0,27.0239574 C0,26.3212032 0.238092857,25.7302597 0.714285714,25.2511091 C1.19047857,24.7719586 1.76190143,24.5323869 2.42857143,24.5323869 L75.5714286,24.5323869 C76.2380986,24.5323869 76.8095214,24.7719586 77.2857143,25.2511091 C77.7619071,25.7302597 78,26.3212032 78,27.0239574 C78,27.6947682 77.7619071,28.2697403 77.2857143,28.7488909 C76.8095214,29.2280414 76.2380986,29.4676131 75.5714286,29.4676131 L75.5714286,29.4676131 Z M75.5714286,54 L2.42857143,54 C1.76190143,54 1.19047857,53.7604283 0.714285714,53.2812777 C0.238092857,52.8021272 0,52.2271551 0,51.5563443 C0,50.8535901 0.238092857,50.2626466 0.714285714,49.783496 C1.19047857,49.3043454 1.76190143,49.0647737 2.42857143,49.0647737 L75.5714286,49.0647737 C76.2380986,49.0647737 76.8095214,49.3043454 77.2857143,49.783496 C77.7619071,50.2626466 78,50.8535901 78,51.5563443 C78,52.2271551 77.7619071,52.8021272 77.2857143,53.2812777 C76.8095214,53.7604283 76.2380986,54 75.5714286,54 L75.5714286,54 Z" sketch:type="MSShapeGroup"></path>
            </g>
        </g>
    </g>
</svg>