<?xml version="1.0" encoding="UTF-8" standalone="no"?>
<svg width="73px" height="75px" viewBox="0 0 73 75" version="1.1" xmlns="http://www.w3.org/2000/svg" xmlns:xlink="http://www.w3.org/1999/xlink" xmlns:sketch="http://www.bohemiancoding.com/sketch/ns">
    <!-- Generator: Sketch 3.3.3 (12072) - http://www.bohemiancoding.com/sketch -->
    <title>post</title>
    <desc>Created with Sketch.</desc>
    <defs></defs>
    <g id="Page-1" stroke="none" stroke-width="1" fill="none" fill-rule="evenodd" sketch:type="MSPage">
        <g id="post" sketch:type="MSArtboardGroup" transform="translate(-4.000000, -1.000000)" fill="#FFFFFF">
            <g sketch:type="MSLayerGroup" transform="translate(4.000000, 1.000000)" id="shape">
                <path d="M37.5567154,11 L4.00386634,11 C1.78580625,11 0,12.792422 0,15.0034866 L7.10542736e-15,70.9965134 C7.10542736e-15,73.2046235 1.79242202,75 4.00348663,75 L59.9965134,75 C62.2046235,75 64,73.2055075 64,70.9918888 L64,37.0081112 C64,34.7912518 64,33 64,33 L60,33 L60,37.0081112 L60,70.9918888 C60,70.9959247 59.9959273,71 59.9965134,71 L4.00348663,71 C4.00303734,71 4,70.9969611 4,70.9965134 L4,15.0034866 C4,14.9982515 3.99825338,15 4.00386634,15 L37.5567154,15 L37.5567154,11 Z" sketch:type="MSShapeGroup"></path>
                <path d="M70.9785156,2.26269531 C70.3486297,1.63280935 69.6272013,1.14941575 68.814209,0.8125 C68.0012166,0.475584253 67.1479537,0.307128906 66.2543945,0.307128906 C65.3608354,0.307128906 64.5075724,0.475584253 63.6945801,0.8125 C62.8815877,1.14941575 62.1528353,1.63280935 61.5083008,2.26269531 L32.8339844,30.9589844 C32.7753903,31.0175784 32.7241213,31.0798337 32.6801758,31.145752 C32.6362302,31.2116703 32.5996095,31.2885738 32.5703125,31.3764648 L28.065918,43.7470703 C27.9926754,43.9521495 27.9780271,44.1608876 28.0219727,44.373291 C28.0659182,44.5856944 28.1684562,44.765136 28.3295898,44.9116211 C28.4321294,45.0288092 28.5529778,45.1130369 28.6921387,45.1643066 C28.8312995,45.2155764 28.9741204,45.2412109 29.1206055,45.2412109 C29.193848,45.2412109 29.2597653,45.2375489 29.3183594,45.2302246 C29.3769534,45.2229004 29.4428707,45.20459 29.5161133,45.175293 L41.8867188,40.6928711 C41.9599613,40.6635741 42.0332028,40.6269533 42.1064453,40.5830078 C42.1796879,40.5390623 42.2456052,40.4877933 42.3041992,40.4291992 L70.9785156,11.7329102 C71.6084016,11.1030242 72.0917952,10.3815959 72.4287109,9.56860352 C72.7656267,8.75561117 72.934082,7.90234822 72.934082,7.00878906 C72.934082,6.11522991 72.7656267,5.25830488 72.4287109,4.43798828 C72.0917952,3.61767168 71.6084016,2.89258127 70.9785156,2.26269531 L70.9785156,2.26269531 Z M40.8759766,38.6494141 L31.0102539,42.2529297 L34.5917969,32.3652344 L59.5087891,7.47021484 L65.7929688,13.7543945 L40.8759766,38.6494141 Z M69.3964844,10.1508789 L67.375,12.1503906 L61.0908203,5.86621094 L63.1123047,3.86669922 C63.522463,3.44189241 63.9985324,3.11596793 64.5405273,2.88891602 C65.0825222,2.6618641 65.6538056,2.54833984 66.2543945,2.54833984 C66.840335,2.54833984 67.4042942,2.6618641 67.9462891,2.88891602 C68.488284,3.11596793 68.9716776,3.44189241 69.3964844,3.86669922 C69.8066427,4.27685752 70.125243,4.75292698 70.3522949,5.29492188 C70.5793468,5.83691677 70.6928711,6.40820012 70.6928711,7.00878906 C70.6928711,7.59472949 70.5793468,8.1586887 70.3522949,8.70068359 C70.125243,9.24267849 69.8066427,9.72607209 69.3964844,10.1508789 L69.3964844,10.1508789 Z" sketch:type="MSShapeGroup"></path>
            </g>
        </g>
    </g>
</svg>