<?xml version="1.0" encoding="UTF-8" standalone="no"?>
<svg width="26px" height="22px" viewBox="0 0 26 22" version="1.1" xmlns="http://www.w3.org/2000/svg" xmlns:xlink="http://www.w3.org/1999/xlink" xmlns:sketch="http://www.bohemiancoding.com/sketch/ns">
    <!-- Generator: Sketch 3.3.3 (12072) - http://www.bohemiancoding.com/sketch -->
    <title>Shape</title>
    <desc>Created with Sketch.</desc>
    <defs></defs>
    <g id="Page-1" stroke="none" stroke-width="1" fill="none" fill-rule="evenodd" sketch:type="MSPage">
        <g id="Spideroak-Social-Copy-9" sketch:type="MSArtboardGroup" transform="translate(-177.000000, -29.000000)" fill="#FFFFFF">
            <g id="noun_158238_cc" sketch:type="MSLayerGroup" transform="translate(169.000000, 22.500000)">
                <path d="M28.9836814,5.76549085 C28.9872525,5.75045684 28.9898497,5.73542282 28.9921222,5.72038881 C28.9956933,5.69767786 28.9979658,5.67464703 28.9989397,5.6516162 C28.999589,5.63594244 29.0002383,5.62026868 28.9999136,5.60459492 C28.9992644,5.58124422 28.9963426,5.55821339 28.9930961,5.53518257 C28.9908236,5.5207883 28.989525,5.50639403 28.9866032,5.49231964 C28.9810843,5.4670497 28.9726435,5.44241951 28.9638781,5.41746944 C28.9599824,5.4062739 28.9570606,5.39475849 28.9525155,5.38356295 C28.9405037,5.35509428 28.9252454,5.32790511 28.9086885,5.30071594 C28.9047928,5.29431848 28.9021956,5.28728129 28.8979752,5.28088383 C28.8979752,5.28056396 28.8976506,5.28024409 28.8976506,5.28024409 C28.876224,5.24793696 28.8518757,5.21850867 28.8255795,5.19163937 C28.817788,5.18332269 28.8080487,5.17660536 28.7996079,5.16892842 C28.7791553,5.15005593 28.7587027,5.13214307 28.7363022,5.11646931 C28.7249396,5.10847249 28.7126031,5.10207504 28.7009159,5.09471797 C28.6785154,5.08096345 28.6557903,5.06848842 28.6317666,5.05761275 C28.6255984,5.05473389 28.620404,5.05089542 28.6142358,5.04833644 C28.6064443,5.04513772 28.5986529,5.0441781 28.5908614,5.04129924 C28.5671623,5.03234281 28.542814,5.02530561 28.518141,5.01922803 C28.5032073,5.01570943 28.4885983,5.01187096 28.4736647,5.00931198 C28.4493163,5.00515364 28.4246433,5.00355428 28.3999703,5.00227478 C28.385686,5.00163504 28.3714016,4.9997158 28.3574419,5.00003568 C28.3285485,5.00035555 28.2999798,5.00387415 28.2710864,5.00835236 C28.2616717,5.00995173 28.2519324,5.00995173 28.2425177,5.01155109 C28.2055082,5.01890816 28.1688233,5.02914408 28.1327878,5.04353835 L3.3997348,14.7561505 C3.16891245,14.8466745 3.01308302,15.0619487 3.00074652,15.3066513 C2.98873467,15.5513538 3.12248826,15.7803826 3.34357127,15.8926579 L10.8149433,19.6921049 C11.1262776,19.8504418 11.5090336,19.7301697 11.6697327,19.4234119 C11.8304318,19.116654 11.7083654,18.7395242 11.3967066,18.5811873 L5.16158134,15.4106099 L25.7395074,7.32934808 L25.5911448,7.47552987 L13.101091,19.782309 C13.057264,19.8254918 13.0241502,19.8744323 12.9955815,19.9256119 C12.9897379,19.9364876 12.9835696,19.9467235 12.9783753,19.957919 C12.9537023,20.0094185 12.9351976,20.0628373 12.9254582,20.1181752 C12.9241597,20.126172 12.9241597,20.1341688 12.9231857,20.1421657 C12.9163682,20.1936652 12.9160435,20.2458044 12.9222118,20.2973039 C12.9235104,20.3072199 12.9235104,20.3164962 12.9251336,20.3264123 C12.9345483,20.3827099 12.9527284,20.4374081 12.977726,20.4901871 C12.9799985,20.4949852 12.9799985,20.5001031 12.9825957,20.5049012 L17.6357275,29.6548574 C17.7435096,29.866933 17.963294,30 18.2028817,30 C18.2096993,30 18.2168415,30 18.223659,29.9996801 C18.4710382,29.9916833 18.6914719,29.8426227 18.7875668,29.6177522 L28.9521909,5.86816996 C28.955762,5.8595334 28.9570606,5.85057697 28.960307,5.84194041 C28.9693971,5.8163506 28.9775132,5.79140053 28.9836814,5.76549085 L28.9836814,5.76549085 Z M18.1532111,27.8808439 L14.3220795,20.3475239 L23.0839141,11.7141619 L26.4884626,8.35965778 L26.4887872,8.35933791 L26.521901,8.3267109 L18.1532111,27.8808439 L18.1532111,27.8808439 Z" id="Shape" sketch:type="MSShapeGroup" transform="translate(16.000000, 17.500000) scale(1, -1) rotate(45.000000) translate(-16.000000, -17.500000) "></path>
            </g>
        </g>
    </g>
</svg>