<?xml version="1.0" encoding="UTF-8" standalone="no"?>
<svg width="26px" height="22px" viewBox="0 0 26 22" version="1.1" xmlns="http://www.w3.org/2000/svg" xmlns:xlink="http://www.w3.org/1999/xlink" xmlns:sketch="http://www.bohemiancoding.com/sketch/ns">
    <!-- Generator: Sketch 3.3.3 (12072) - http://www.bohemiancoding.com/sketch -->
    <title>send</title>
    <desc>Created with Sketch.</desc>
    <defs></defs>
    <g id="Page-1" stroke="none" stroke-width="1" fill="none" fill-rule="evenodd" sketch:type="MSPage">
        <g id="send" sketch:type="MSArtboardGroup" fill="#FFFFFF">
            <path d="M20.9836814,-0.734509143 C20.9872525,-0.749543153 20.9898497,-0.764577173 20.9921222,-0.779611183 C20.9956933,-0.802322133 20.9979658,-0.825352963 20.9989397,-0.848383793 C20.999589,-0.864057553 21.0002383,-0.879731313 20.9999136,-0.895405073 C20.9992644,-0.918755773 20.9963426,-0.941786603 20.9930961,-0.964817423 C20.9908236,-0.979211693 20.989525,-0.993605963 20.9866032,-1.00768035 C20.9810843,-1.03295029 20.9726435,-1.05758048 20.9638781,-1.08253055 C20.9599824,-1.09372609 20.9570606,-1.1052415 20.9525155,-1.11643704 C20.9405037,-1.14490571 20.9252454,-1.17209488 20.9086885,-1.19928405 C20.9047928,-1.20568151 20.9021956,-1.2127187 20.8979752,-1.21911616 C20.8979752,-1.21943603 20.8976506,-1.2197559 20.8976506,-1.2197559 C20.876224,-1.25206303 20.8518757,-1.28149132 20.8255795,-1.30836062 C20.817788,-1.3166773 20.8080487,-1.32339463 20.7996079,-1.33107157 C20.7791553,-1.34994406 20.7587027,-1.36785692 20.7363022,-1.38353068 C20.7249396,-1.3915275 20.7126031,-1.39792495 20.7009159,-1.40528202 C20.6785154,-1.41903654 20.6557903,-1.43151157 20.6317666,-1.44238724 C20.6255984,-1.4452661 20.620404,-1.44910457 20.6142358,-1.45166355 C20.6064443,-1.45486227 20.5986529,-1.45582189 20.5908614,-1.45870075 C20.5671623,-1.46765718 20.542814,-1.47469438 20.518141,-1.48077196 C20.5032073,-1.48429056 20.4885983,-1.48812903 20.4736647,-1.49068801 C20.4493163,-1.49484635 20.4246433,-1.49644571 20.3999703,-1.49772521 C20.385686,-1.49836495 20.3714016,-1.50028419 20.3574419,-1.49996431 C20.3285485,-1.49964444 20.2999798,-1.49612584 20.2710864,-1.49164763 C20.2616717,-1.49004826 20.2519324,-1.49004826 20.2425177,-1.4884489 C20.2055082,-1.48109183 20.1688233,-1.47085591 20.1327878,-1.45646164 L-4.6002652,8.25615051 C-4.83108755,8.34667451 -4.98691698,8.56194871 -4.99925348,8.80665131 C-5.01126533,9.05135381 -4.87751174,9.28038261 -4.65642873,9.39265791 L2.8149433,13.1921049 C3.1262776,13.3504418 3.5090336,13.2301697 3.6697327,12.9234119 C3.8304318,12.616654 3.7083654,12.2395242 3.3967066,12.0811873 L-2.83841866,8.91060991 L17.7395074,0.829348087 L17.5911448,0.975529877 L5.101091,13.282309 C5.057264,13.3254918 5.0241502,13.3744323 4.9955815,13.4256119 C4.9897379,13.4364876 4.9835696,13.4467235 4.9783753,13.457919 C4.9537023,13.5094185 4.9351976,13.5628373 4.9254582,13.6181752 C4.9241597,13.626172 4.9241597,13.6341688 4.9231857,13.6421657 C4.9163682,13.6936652 4.9160435,13.7458044 4.9222118,13.7973039 C4.9235104,13.8072199 4.9235104,13.8164962 4.9251336,13.8264123 C4.9345483,13.8827099 4.9527284,13.9374081 4.977726,13.9901871 C4.9799985,13.9949852 4.9799985,14.0001031 4.9825957,14.0049012 L9.6357275,23.1548574 C9.7435096,23.366933 9.963294,23.5 10.2028817,23.5 C10.2096993,23.5 10.2168415,23.5 10.223659,23.4996801 C10.4710382,23.4916833 10.6914719,23.3426227 10.7875668,23.1177522 L20.9521909,-0.631830033 C20.955762,-0.640466593 20.9570606,-0.649423023 20.960307,-0.658059583 C20.9693971,-0.683649393 20.9775132,-0.708599463 20.9836814,-0.734509143 L20.9836814,-0.734509143 L20.9836814,-0.734509143 Z M10.1532111,21.3808439 L6.3220795,13.8475239 L15.0839141,5.21416191 L18.4884626,1.85965779 L18.4887872,1.85933792 L18.521901,1.82671091 L10.1532111,21.3808439 L10.1532111,21.3808439 Z" id="Shape" sketch:type="MSShapeGroup" transform="translate(8.000000, 11.000000) rotate(-315.000000) translate(-8.000000, -11.000000) "></path>
        </g>
    </g>
</svg>