<?xml version="1.0" encoding="UTF-8" standalone="no"?>
<svg width="24px" height="24px" viewBox="0 0 24 24" version="1.1" xmlns="http://www.w3.org/2000/svg" xmlns:xlink="http://www.w3.org/1999/xlink" xmlns:sketch="http://www.bohemiancoding.com/sketch/ns">
    <!-- Generator: Sketch 3.3.3 (12072) - http://www.bohemiancoding.com/sketch -->
    <title>Fill 2369</title>
    <desc>Created with Sketch.</desc>
    <defs></defs>
    <g id="Page-1" stroke="none" stroke-width="1" fill="none" fill-rule="evenodd" sketch:type="MSPage">
        <g id="Spideroak-Social-Copy-9" sketch:type="MSArtboardGroup" transform="translate(-13.000000, -29.000000)" fill="#FFFFFF">
            <g id="Header" sketch:type="MSLayerGroup">
                <g id="Fill-2369" transform="translate(13.000000, 29.000000)" sketch:type="MSShapeGroup">
                    <path d="M12.029568,15.367392 C9.911808,15.367392 8.189568,13.645152 8.189568,11.527392 C8.189568,9.409632 9.911808,7.687392 12.029568,7.687392 C14.147328,7.687392 15.869568,9.409632 15.869568,11.527392 C15.869568,13.645152 14.147328,15.367392 12.029568,15.367392 M23.069568,9.607392 L20.328768,9.607392 C20.136768,8.848992 19.892928,8.007072 19.581888,7.369632 L21.532608,5.417952 C21.622848,5.327712 21.673728,5.205792 21.673728,5.078112 C21.673728,4.950432 21.622848,4.829472 21.532608,4.739232 L18.816768,2.024352 C18.629568,1.836192 18.326208,1.836192 18.138048,2.024352 L16.186368,3.975072 C15.548928,3.664032 14.707008,3.420192 13.949568,3.229152 L13.949568,0.487392 C13.949568,0.222432 13.734528,0.007392 13.469568,0.007392 L10.589568,0.007392 C10.324608,0.007392 10.109568,0.222432 10.109568,0.487392 L10.109568,3.229152 C9.351168,3.420192 8.509248,3.664032 7.871808,3.975072 L5.920128,2.024352 C5.731968,1.836192 5.428608,1.836192 5.241408,2.024352 L2.525568,4.739232 C2.338368,4.926432 2.338368,5.229792 2.525568,5.417952 L4.477248,7.369632 C4.168128,8.006112 3.922368,8.848032 3.729408,9.607392 L0.989568,9.607392 C0.724608,9.607392 0.509568,9.822432 0.509568,10.087392 L0.509568,12.967392 C0.509568,13.232352 0.724608,13.447392 0.989568,13.447392 L3.729408,13.447392 C3.922368,14.206752 4.168128,15.049632 4.477248,15.685152 L2.525568,17.636832 C2.435328,17.727072 2.384448,17.848992 2.384448,17.976672 C2.384448,18.104352 2.435328,18.226272 2.525568,18.315552 L5.241408,21.030432 C5.420928,21.210912 5.740608,21.210912 5.920128,21.030432 L7.870848,19.078752 C8.507328,19.389792 9.350208,19.634592 10.109568,19.827552 L10.109568,22.567392 C10.109568,22.832352 10.324608,23.047392 10.589568,23.047392 L13.469568,23.047392 C13.734528,23.047392 13.949568,22.832352 13.949568,22.567392 L13.949568,19.827552 C14.708928,19.634592 15.550848,19.389792 16.187328,19.079712 L18.139008,21.030432 C18.327168,21.218592 18.630528,21.218592 18.817728,21.030432 L21.532608,18.315552 C21.720768,18.128352 21.720768,17.824992 21.532608,17.636832 L19.581888,15.685152 C19.891968,15.049632 20.136768,14.206752 20.328768,13.447392 L23.069568,13.447392 C23.334528,13.447392 23.549568,13.232352 23.549568,12.967392 L23.549568,10.087392 C23.549568,9.822432 23.334528,9.607392 23.069568,9.607392"></path>
                </g>
            </g>
        </g>
    </g>
</svg>