<?xml version="1.0" encoding="UTF-8" standalone="no"?>
<svg width="78px" height="78px" viewBox="0 0 78 78" version="1.1" xmlns="http://www.w3.org/2000/svg" xmlns:xlink="http://www.w3.org/1999/xlink" xmlns:sketch="http://www.bohemiancoding.com/sketch/ns">
    <!-- Generator: Sketch 3.3.3 (12072) - http://www.bohemiancoding.com/sketch -->
    <title>setting</title>
    <desc>Created with Sketch.</desc>
    <defs></defs>
    <g id="Page-1" stroke="none" stroke-width="1" fill="none" fill-rule="evenodd" sketch:type="MSPage">
        <g id="settings" sketch:type="MSArtboardGroup" transform="translate(-1.000000, -1.000000)" fill="#FFFFFF">
            <g id="setting" sketch:type="MSLayerGroup" transform="translate(1.000000, 1.000000)">
                <path d="M29.524,77.808 C29.36,77.808 29.192,77.788 29.024,77.744 C25.432,76.82 21.98,75.396 18.768,73.508 C17.836,72.96 17.508,71.772 18.024,70.824 C18.66,69.656 18.996,68.336 18.996,66.996 C18.996,62.584 15.408,58.996 10.996,58.996 C9.66,58.996 8.336,59.332 7.168,59.968 C6.22,60.484 5.032,60.156 4.484,59.224 C2.596,56.008 1.172,52.56 0.248,48.968 C-0.012,47.952 0.556,46.908 1.548,46.576 C4.804,45.48 6.996,42.432 6.996,38.996 C6.996,35.56 4.808,32.512 1.548,31.416 C0.556,31.08 -0.012,30.04 0.248,29.024 C1.172,25.432 2.596,21.98 4.484,18.768 C5.032,17.836 6.22,17.508 7.168,18.024 C8.332,18.66 9.656,18.996 10.996,18.996 C15.408,18.996 18.996,15.408 18.996,10.996 C18.996,9.66 18.66,8.336 18.024,7.168 C17.508,6.22 17.836,5.032 18.768,4.484 C21.984,2.596 25.432,1.172 29.024,0.248 C30.04,-0.012 31.084,0.556 31.416,1.548 C32.512,4.804 35.56,6.996 38.996,6.996 C42.432,6.996 45.48,4.808 46.576,1.548 C46.912,0.556 47.956,-0.012 48.968,0.248 C52.56,1.172 56.012,2.596 59.224,4.484 C60.156,5.032 60.484,6.22 59.968,7.168 C59.332,8.336 58.996,9.656 58.996,10.996 C58.996,15.408 62.584,18.996 66.996,18.996 C68.332,18.996 69.656,18.66 70.824,18.024 C71.772,17.508 72.96,17.836 73.508,18.768 C75.396,21.984 76.82,25.432 77.744,29.024 C78.004,30.04 77.436,31.084 76.444,31.416 C73.188,32.512 70.996,35.56 70.996,38.996 C70.996,42.432 73.184,45.48 76.444,46.576 C77.436,46.912 78.004,47.952 77.744,48.968 C76.82,52.56 75.396,56.012 73.508,59.224 C72.96,60.156 71.772,60.484 70.824,59.968 C69.656,59.332 68.336,58.996 66.996,58.996 C62.584,58.996 58.996,62.584 58.996,66.996 C58.996,68.332 59.332,69.656 59.968,70.824 C60.484,71.772 60.156,72.96 59.224,73.508 C56.008,75.396 52.56,76.82 48.968,77.744 C47.952,78.004 46.908,77.436 46.576,76.444 C45.48,73.188 42.432,70.996 38.996,70.996 C35.56,70.996 32.512,73.184 31.416,76.444 C31.136,77.272 30.36,77.808 29.52,77.808 L29.524,77.808 Z M39,67 C43.508,67 47.568,69.512 49.62,73.408 C51.7,72.764 53.724,71.932 55.66,70.92 C55.228,69.664 55.004,68.336 55.004,67 C55.004,60.384 60.388,55 67.004,55 C68.34,55 69.668,55.224 70.924,55.656 C71.936,53.72 72.772,51.7 73.412,49.616 C69.516,47.568 67.004,43.508 67.004,38.996 C67.004,34.484 69.516,30.428 73.412,28.376 C72.768,26.296 71.936,24.272 70.924,22.336 C69.668,22.768 68.34,22.992 67.004,22.992 C60.388,22.992 55.004,17.608 55.004,10.992 C55.004,9.656 55.228,8.328 55.66,7.072 C53.724,6.06 51.704,5.224 49.62,4.584 C47.572,8.48 43.512,10.992 39,10.992 C34.488,10.992 30.432,8.48 28.38,4.584 C26.3,5.224 24.276,6.06 22.34,7.072 C22.772,8.328 22.996,9.656 22.996,10.992 C22.996,17.608 17.612,22.992 10.996,22.992 C9.66,22.992 8.332,22.768 7.076,22.336 C6.064,24.272 5.228,26.292 4.588,28.376 C8.484,30.424 10.996,34.484 10.996,38.996 C10.996,43.508 8.484,47.564 4.588,49.616 C5.228,51.696 6.064,53.72 7.076,55.656 C8.332,55.224 9.66,55 10.996,55 C17.612,55 22.996,60.384 22.996,67 C22.996,68.336 22.772,69.664 22.34,70.92 C24.276,71.932 26.296,72.768 28.38,73.408 C30.428,69.512 34.488,67 39,67 L39,67 Z" id="shape" sketch:type="MSShapeGroup"></path>
                <path d="M39,51 C32.384,51 27,45.616 27,39 C27,32.384 32.384,27 39,27 C45.616,27 51,32.384 51,39 C51,45.616 45.616,51 39,51 L39,51 Z M39,31 C34.588,31 31,34.588 31,39 C31,43.412 34.588,47 39,47 C43.412,47 47,43.412 47,39 C47,34.588 43.412,31 39,31 L39,31 Z" id="shape" sketch:type="MSShapeGroup"></path>
            </g>
        </g>
    </g>
</svg>