<?xml version="1.0" encoding="UTF-8" standalone="no"?>
<svg width="30px" height="18px" viewBox="0 0 30 18" version="1.1" xmlns="http://www.w3.org/2000/svg" xmlns:xlink="http://www.w3.org/1999/xlink" xmlns:sketch="http://www.bohemiancoding.com/sketch/ns">
    <!-- Generator: Sketch 3.3.3 (12072) - http://www.bohemiancoding.com/sketch -->
    <title>Card</title>
    <desc>Created with Sketch.</desc>
    <defs></defs>
    <g id="Page-1" stroke="none" stroke-width="1" fill="none" fill-rule="evenodd" sketch:type="MSPage">
        <g id="Spideroak-Social-Copy-9" sketch:type="MSArtboardGroup" transform="translate(-175.000000, -31.000000)" fill="#FFFFFF">
            <g id="Card" sketch:type="MSLayerGroup" transform="translate(175.000000, 31.000000)">
                <path d="M0,1.66113281 C0,0.743714493 0.741577148,0 1.66642273,0 L28.3335773,0 C29.2539171,0 30,0.750520974 30,1.66113281 L30,16.3388672 C30,17.2562855 29.2584229,18 28.3335773,18 L1.66642273,18 C0.74608287,18 0,17.249479 0,16.3388672 L0,1.66113281 Z M17.2222222,2.76923077 L28.3333333,2.76923077 L28.3333333,13.8461538 L17.2222222,13.8461538 L17.2222222,2.76923077 Z M22.7777778,8.65384615 C21.6288194,8.65384615 20.6944444,7.72234615 20.6944444,6.57692308 C20.6944444,5.4315 21.6288194,4.5 22.7777778,4.5 C23.9267361,4.5 24.8611111,5.4315 24.8611111,6.57692308 C24.8611111,7.72234615 23.9267361,8.65384615 22.7777778,8.65384615 Z M19.5039683,12.4615385 C19.0117063,12.4615385 18.6111111,12.1508713 18.6111111,11.7691154 C18.6111111,11.7469578 18.6176587,11.219793 19.1611111,10.7004757 C19.4736111,10.4022722 19.8998016,10.1659251 20.4277778,9.99789709 C21.0652778,9.79478631 21.8563492,9.69230769 22.7777778,9.69230769 C23.6992063,9.69230769 24.4896825,9.79524793 25.1277778,9.99789709 C25.655754,10.1659251 26.0819444,10.4022722 26.3944444,10.7004757 C26.9384921,11.219793 26.9444444,11.7469578 26.9444444,11.7691154 C26.9444444,12.1508713 26.5438492,12.4615385 26.0515873,12.4615385 L19.5039683,12.4615385 Z M9.72222222,8.30769231 L15.2777778,8.30769231 C15.6613089,8.30769231 15.9722222,7.9977356 15.9722222,7.61538462 C15.9722222,7.23303363 15.6613089,6.92307692 15.2777778,6.92307692 L9.72222222,6.92307692 C9.33869115,6.92307692 9.02777778,7.23303363 9.02777778,7.61538462 C9.02777778,7.9977356 9.33869115,8.30769231 9.72222222,8.30769231 Z M2.08333333,8.30769231 L7.63888889,8.30769231 C8.02241997,8.30769231 8.33333333,7.9977356 8.33333333,7.61538462 C8.33333333,7.23303363 8.02241997,6.92307692 7.63888889,6.92307692 L2.08333333,6.92307692 C1.69980226,6.92307692 1.38888889,7.23303363 1.38888889,7.61538462 C1.38888889,7.9977356 1.69980226,8.30769231 2.08333333,8.30769231 Z M2.08333333,13.8461538 L9.02777778,13.8461538 C9.41130885,13.8461538 9.72222222,13.5361971 9.72222222,13.1538462 C9.72222222,12.7714952 9.41130885,12.4615385 9.02777778,12.4615385 L2.08333333,12.4615385 C1.69980226,12.4615385 1.38888889,12.7714952 1.38888889,13.1538462 C1.38888889,13.5361971 1.69980226,13.8461538 2.08333333,13.8461538 Z M2.08333333,11.0769231 L13.1944444,11.0769231 C13.5779755,11.0769231 13.8888889,10.7669664 13.8888889,10.3846154 C13.8888889,10.0022644 13.5779755,9.69230769 13.1944444,9.69230769 L2.08333333,9.69230769 C1.69980226,9.69230769 1.38888889,10.0022644 1.38888889,10.3846154 C1.38888889,10.7669664 1.69980226,11.0769231 2.08333333,11.0769231 Z M2.08333333,5.53846154 L13.1944444,5.53846154 C13.5779755,5.53846154 13.8888889,5.22850483 13.8888889,4.84615385 C13.8888889,4.46380287 13.5779755,4.15384615 13.1944444,4.15384615 L2.08333333,4.15384615 C1.69980226,4.15384615 1.38888889,4.46380287 1.38888889,4.84615385 C1.38888889,5.22850483 1.69980226,5.53846154 2.08333333,5.53846154 Z" id="Card-Shape" sketch:type="MSShapeGroup"></path>
            </g>
        </g>
    </g>
</svg>