<?xml version="1.0" encoding="UTF-8" standalone="no"?>
<svg width="77px" height="61px" viewBox="0 0 77 61" version="1.1" xmlns="http://www.w3.org/2000/svg" xmlns:xlink="http://www.w3.org/1999/xlink" xmlns:sketch="http://www.bohemiancoding.com/sketch/ns">
    <!-- Generator: Sketch 3.3.3 (12072) - http://www.bohemiancoding.com/sketch -->
    <title>shape</title>
    <desc>Created with Sketch.</desc>
    <defs></defs>
    <g id="Page-1" stroke="none" stroke-width="1" fill="none" fill-rule="evenodd" sketch:type="MSPage">
        <g id="sync" sketch:type="MSArtboardGroup" transform="translate(-2.000000, -9.000000)" fill="#000000">
            <g id="shape" sketch:type="MSLayerGroup" transform="translate(2.000000, 9.000000)">
                <path d="M75.6342857,25.337875 C74.8914286,24.5944375 73.6838095,24.5944375 72.9409524,25.337875 L68.5638095,29.7184375 C68.3695238,21.8646875 65.2190476,14.5065625 59.6457143,8.9326875 C53.8895238,3.172 46.2361905,-7.10542736e-15 38.0952381,-7.10542736e-15 C26.7657143,-7.10542736e-15 16.4342857,6.2334375 11.1352381,16.264125 C10.6438095,17.194375 10.9980952,18.3495625 11.927619,18.841375 C12.8571429,19.3331875 14.0114286,18.978625 14.5028571,18.048375 C19.1390476,9.2681875 28.1790476,3.8125 38.0952381,3.8125 C52.5295238,3.8125 64.3238095,15.3529375 64.7504762,29.6955625 L60.3961905,25.337875 C59.6533333,24.5944375 58.4457143,24.5944375 57.7028571,25.337875 C56.96,26.0813125 56.96,27.289875 57.7028571,28.0333125 L65.3219048,35.6583125 C65.6952381,36.0319375 66.1828571,36.2149375 66.6704762,36.2149375 C67.1580952,36.2149375 67.6457143,36.028125 68.0190476,35.6583125 L75.6380952,28.0333125 C76.3809524,27.289875 76.3809524,26.0813125 75.6380952,25.337875 L75.6342857,25.337875 Z" sketch:type="MSShapeGroup"></path>
                <path d="M64.2628571,42.158625 C63.3333333,41.6668125 62.1790476,42.021375 61.687619,42.951625 C57.0514286,51.7318125 48.0114286,57.1875 38.0952381,57.1875 C23.6609524,57.1875 11.8666667,45.6470625 11.44,31.3044375 L15.7942857,35.662125 C16.167619,36.03575 16.6552381,36.21875 17.1428571,36.21875 C17.6304762,36.21875 18.1180952,36.0319375 18.4914286,35.662125 C19.2342857,34.9186875 19.2342857,33.710125 18.4914286,32.9666875 L10.872381,25.3416875 C10.1295238,24.59825 8.92190476,24.59825 8.17904762,25.3416875 L0.56,32.9666875 C-0.182857143,33.710125 -0.182857143,34.9186875 0.56,35.662125 C1.30285714,36.4055625 2.51047619,36.4055625 3.25333333,35.662125 L7.63047619,31.2815625 C7.8247619,39.1353125 10.9752381,46.4934375 16.5485714,52.0673125 C22.3047619,57.828 29.9580952,61 38.0990476,61 C49.4285714,61 59.76,54.7665625 65.0590476,44.735875 C65.5504762,43.805625 65.1961905,42.6504375 64.2666667,42.158625 L64.2628571,42.158625 Z" sketch:type="MSShapeGroup"></path>
            </g>
        </g>
    </g>
</svg>
